<mxfile host="app.diagrams.net" agent="Mozilla/5.0 (Windows NT 10.0; Win64; x64) AppleWebKit/537.36 (KHTML, like Gecko) Chrome/133.0.0.0 Safari/537.36" version="26.0.16">
  <diagram name="Page-1" id="w0n4qdKBBSs86dPPn1iK">
    <mxGraphModel dx="4813" dy="-1260" grid="1" gridSize="10" guides="1" tooltips="1" connect="1" arrows="1" fold="1" page="1" pageScale="1" pageWidth="850" pageHeight="1100" math="0" shadow="0">
      <root>
        <mxCell id="0" />
        <mxCell id="1" parent="0" />
        <mxCell id="4E2TjhoOTMDhPv9ojZg_-1616" value="Usuario" style="swimlane;fontStyle=1;align=center;verticalAlign=top;childLayout=stackLayout;horizontal=1;startSize=27.047619047619047;horizontalStack=0;resizeParent=1;resizeParentMax=0;resizeLast=0;collapsible=0;marginBottom=0;" vertex="1" parent="1">
          <mxGeometry x="7426" y="9150" width="264" height="575.047619047619" as="geometry" />
        </mxCell>
        <mxCell id="4E2TjhoOTMDhPv9ojZg_-1617" value="+int id" style="text;strokeColor=none;fillColor=none;align=left;verticalAlign=top;spacingLeft=4;spacingRight=4;overflow=hidden;rotatable=0;points=[[0,0.5],[1,0.5]];portConstraint=eastwest;" vertex="1" parent="4E2TjhoOTMDhPv9ojZg_-1616">
          <mxGeometry y="27.047619047619047" width="264" height="27" as="geometry" />
        </mxCell>
        <mxCell id="4E2TjhoOTMDhPv9ojZg_-1618" value="+string nome" style="text;strokeColor=none;fillColor=none;align=left;verticalAlign=top;spacingLeft=4;spacingRight=4;overflow=hidden;rotatable=0;points=[[0,0.5],[1,0.5]];portConstraint=eastwest;" vertex="1" parent="4E2TjhoOTMDhPv9ojZg_-1616">
          <mxGeometry y="54.04761904761905" width="264" height="27" as="geometry" />
        </mxCell>
        <mxCell id="4E2TjhoOTMDhPv9ojZg_-1619" value="+string sobrenome" style="text;strokeColor=none;fillColor=none;align=left;verticalAlign=top;spacingLeft=4;spacingRight=4;overflow=hidden;rotatable=0;points=[[0,0.5],[1,0.5]];portConstraint=eastwest;" vertex="1" parent="4E2TjhoOTMDhPv9ojZg_-1616">
          <mxGeometry y="81.04761904761905" width="264" height="27" as="geometry" />
        </mxCell>
        <mxCell id="4E2TjhoOTMDhPv9ojZg_-1620" value="+string telefone" style="text;strokeColor=none;fillColor=none;align=left;verticalAlign=top;spacingLeft=4;spacingRight=4;overflow=hidden;rotatable=0;points=[[0,0.5],[1,0.5]];portConstraint=eastwest;" vertex="1" parent="4E2TjhoOTMDhPv9ojZg_-1616">
          <mxGeometry y="108.04761904761905" width="264" height="27" as="geometry" />
        </mxCell>
        <mxCell id="4E2TjhoOTMDhPv9ojZg_-1621" value="+string email" style="text;strokeColor=none;fillColor=none;align=left;verticalAlign=top;spacingLeft=4;spacingRight=4;overflow=hidden;rotatable=0;points=[[0,0.5],[1,0.5]];portConstraint=eastwest;" vertex="1" parent="4E2TjhoOTMDhPv9ojZg_-1616">
          <mxGeometry y="135.04761904761904" width="264" height="27" as="geometry" />
        </mxCell>
        <mxCell id="4E2TjhoOTMDhPv9ojZg_-1622" value="+string senha_hash" style="text;strokeColor=none;fillColor=none;align=left;verticalAlign=top;spacingLeft=4;spacingRight=4;overflow=hidden;rotatable=0;points=[[0,0.5],[1,0.5]];portConstraint=eastwest;" vertex="1" parent="4E2TjhoOTMDhPv9ojZg_-1616">
          <mxGeometry y="162.04761904761904" width="264" height="27" as="geometry" />
        </mxCell>
        <mxCell id="4E2TjhoOTMDhPv9ojZg_-1623" value="+string salt" style="text;strokeColor=none;fillColor=none;align=left;verticalAlign=top;spacingLeft=4;spacingRight=4;overflow=hidden;rotatable=0;points=[[0,0.5],[1,0.5]];portConstraint=eastwest;" vertex="1" parent="4E2TjhoOTMDhPv9ojZg_-1616">
          <mxGeometry y="189.04761904761904" width="264" height="27" as="geometry" />
        </mxCell>
        <mxCell id="4E2TjhoOTMDhPv9ojZg_-1624" value="+date data_nascimento" style="text;strokeColor=none;fillColor=none;align=left;verticalAlign=top;spacingLeft=4;spacingRight=4;overflow=hidden;rotatable=0;points=[[0,0.5],[1,0.5]];portConstraint=eastwest;" vertex="1" parent="4E2TjhoOTMDhPv9ojZg_-1616">
          <mxGeometry y="216.04761904761904" width="264" height="27" as="geometry" />
        </mxCell>
        <mxCell id="4E2TjhoOTMDhPv9ojZg_-1625" value="+string foto_perfil" style="text;strokeColor=none;fillColor=none;align=left;verticalAlign=top;spacingLeft=4;spacingRight=4;overflow=hidden;rotatable=0;points=[[0,0.5],[1,0.5]];portConstraint=eastwest;" vertex="1" parent="4E2TjhoOTMDhPv9ojZg_-1616">
          <mxGeometry y="243.04761904761904" width="264" height="27" as="geometry" />
        </mxCell>
        <mxCell id="4E2TjhoOTMDhPv9ojZg_-1626" value="+string status" style="text;strokeColor=none;fillColor=none;align=left;verticalAlign=top;spacingLeft=4;spacingRight=4;overflow=hidden;rotatable=0;points=[[0,0.5],[1,0.5]];portConstraint=eastwest;" vertex="1" parent="4E2TjhoOTMDhPv9ojZg_-1616">
          <mxGeometry y="270.04761904761904" width="264" height="27" as="geometry" />
        </mxCell>
        <mxCell id="4E2TjhoOTMDhPv9ojZg_-1627" value="+string tipo" style="text;strokeColor=none;fillColor=none;align=left;verticalAlign=top;spacingLeft=4;spacingRight=4;overflow=hidden;rotatable=0;points=[[0,0.5],[1,0.5]];portConstraint=eastwest;" vertex="1" parent="4E2TjhoOTMDhPv9ojZg_-1616">
          <mxGeometry y="297.04761904761904" width="264" height="27" as="geometry" />
        </mxCell>
        <mxCell id="4E2TjhoOTMDhPv9ojZg_-1628" value="+boolean verificacao_email" style="text;strokeColor=none;fillColor=none;align=left;verticalAlign=top;spacingLeft=4;spacingRight=4;overflow=hidden;rotatable=0;points=[[0,0.5],[1,0.5]];portConstraint=eastwest;" vertex="1" parent="4E2TjhoOTMDhPv9ojZg_-1616">
          <mxGeometry y="324.04761904761904" width="264" height="27" as="geometry" />
        </mxCell>
        <mxCell id="4E2TjhoOTMDhPv9ojZg_-1629" value="+boolean verificacao_sms" style="text;strokeColor=none;fillColor=none;align=left;verticalAlign=top;spacingLeft=4;spacingRight=4;overflow=hidden;rotatable=0;points=[[0,0.5],[1,0.5]];portConstraint=eastwest;" vertex="1" parent="4E2TjhoOTMDhPv9ojZg_-1616">
          <mxGeometry y="351.04761904761904" width="264" height="27" as="geometry" />
        </mxCell>
        <mxCell id="4E2TjhoOTMDhPv9ojZg_-1630" value="+timestamp ultimo_login" style="text;strokeColor=none;fillColor=none;align=left;verticalAlign=top;spacingLeft=4;spacingRight=4;overflow=hidden;rotatable=0;points=[[0,0.5],[1,0.5]];portConstraint=eastwest;" vertex="1" parent="4E2TjhoOTMDhPv9ojZg_-1616">
          <mxGeometry y="378.04761904761904" width="264" height="27" as="geometry" />
        </mxCell>
        <mxCell id="4E2TjhoOTMDhPv9ojZg_-1631" value="+timestamp data_criacao" style="text;strokeColor=none;fillColor=none;align=left;verticalAlign=top;spacingLeft=4;spacingRight=4;overflow=hidden;rotatable=0;points=[[0,0.5],[1,0.5]];portConstraint=eastwest;" vertex="1" parent="4E2TjhoOTMDhPv9ojZg_-1616">
          <mxGeometry y="405.04761904761904" width="264" height="27" as="geometry" />
        </mxCell>
        <mxCell id="4E2TjhoOTMDhPv9ojZg_-1632" value="+timestamp data_atualizacao" style="text;strokeColor=none;fillColor=none;align=left;verticalAlign=top;spacingLeft=4;spacingRight=4;overflow=hidden;rotatable=0;points=[[0,0.5],[1,0.5]];portConstraint=eastwest;" vertex="1" parent="4E2TjhoOTMDhPv9ojZg_-1616">
          <mxGeometry y="432.04761904761904" width="264" height="27" as="geometry" />
        </mxCell>
        <mxCell id="4E2TjhoOTMDhPv9ojZg_-1633" style="line;strokeWidth=1;fillColor=none;align=left;verticalAlign=middle;spacingTop=-1;spacingLeft=3;spacingRight=3;rotatable=0;labelPosition=right;points=[];portConstraint=eastwest;strokeColor=inherit;" vertex="1" parent="4E2TjhoOTMDhPv9ojZg_-1616">
          <mxGeometry y="459.04761904761904" width="264" height="8" as="geometry" />
        </mxCell>
        <mxCell id="4E2TjhoOTMDhPv9ojZg_-1634" value="+Login()" style="text;strokeColor=none;fillColor=none;align=left;verticalAlign=top;spacingLeft=4;spacingRight=4;overflow=hidden;rotatable=0;points=[[0,0.5],[1,0.5]];portConstraint=eastwest;" vertex="1" parent="4E2TjhoOTMDhPv9ojZg_-1616">
          <mxGeometry y="467.04761904761904" width="264" height="27" as="geometry" />
        </mxCell>
        <mxCell id="4E2TjhoOTMDhPv9ojZg_-1635" value="+ConfirmarEmail()" style="text;strokeColor=none;fillColor=none;align=left;verticalAlign=top;spacingLeft=4;spacingRight=4;overflow=hidden;rotatable=0;points=[[0,0.5],[1,0.5]];portConstraint=eastwest;" vertex="1" parent="4E2TjhoOTMDhPv9ojZg_-1616">
          <mxGeometry y="494.04761904761904" width="264" height="27" as="geometry" />
        </mxCell>
        <mxCell id="4E2TjhoOTMDhPv9ojZg_-1636" value="+ConfirmarSMS()" style="text;strokeColor=none;fillColor=none;align=left;verticalAlign=top;spacingLeft=4;spacingRight=4;overflow=hidden;rotatable=0;points=[[0,0.5],[1,0.5]];portConstraint=eastwest;" vertex="1" parent="4E2TjhoOTMDhPv9ojZg_-1616">
          <mxGeometry y="521.047619047619" width="264" height="27" as="geometry" />
        </mxCell>
        <mxCell id="4E2TjhoOTMDhPv9ojZg_-1637" value="+AtualizarPerfil()" style="text;strokeColor=none;fillColor=none;align=left;verticalAlign=top;spacingLeft=4;spacingRight=4;overflow=hidden;rotatable=0;points=[[0,0.5],[1,0.5]];portConstraint=eastwest;" vertex="1" parent="4E2TjhoOTMDhPv9ojZg_-1616">
          <mxGeometry y="548.047619047619" width="264" height="27" as="geometry" />
        </mxCell>
        <mxCell id="4E2TjhoOTMDhPv9ojZg_-1638" value="PasswordResetToken" style="swimlane;fontStyle=1;align=center;verticalAlign=top;childLayout=stackLayout;horizontal=1;startSize=32;horizontalStack=0;resizeParent=1;resizeParentMax=0;resizeLast=0;collapsible=0;marginBottom=0;" vertex="1" parent="1">
          <mxGeometry x="6029" y="9871" width="301" height="208" as="geometry" />
        </mxCell>
        <mxCell id="4E2TjhoOTMDhPv9ojZg_-1639" value="+int id" style="text;strokeColor=none;fillColor=none;align=left;verticalAlign=top;spacingLeft=4;spacingRight=4;overflow=hidden;rotatable=0;points=[[0,0.5],[1,0.5]];portConstraint=eastwest;" vertex="1" parent="4E2TjhoOTMDhPv9ojZg_-1638">
          <mxGeometry y="32" width="301" height="32" as="geometry" />
        </mxCell>
        <mxCell id="4E2TjhoOTMDhPv9ojZg_-1640" value="+int usuario_id" style="text;strokeColor=none;fillColor=none;align=left;verticalAlign=top;spacingLeft=4;spacingRight=4;overflow=hidden;rotatable=0;points=[[0,0.5],[1,0.5]];portConstraint=eastwest;" vertex="1" parent="4E2TjhoOTMDhPv9ojZg_-1638">
          <mxGeometry y="64" width="301" height="32" as="geometry" />
        </mxCell>
        <mxCell id="4E2TjhoOTMDhPv9ojZg_-1641" value="+string token" style="text;strokeColor=none;fillColor=none;align=left;verticalAlign=top;spacingLeft=4;spacingRight=4;overflow=hidden;rotatable=0;points=[[0,0.5],[1,0.5]];portConstraint=eastwest;" vertex="1" parent="4E2TjhoOTMDhPv9ojZg_-1638">
          <mxGeometry y="96" width="301" height="32" as="geometry" />
        </mxCell>
        <mxCell id="4E2TjhoOTMDhPv9ojZg_-1642" value="+timestamp data_expiracao" style="text;strokeColor=none;fillColor=none;align=left;verticalAlign=top;spacingLeft=4;spacingRight=4;overflow=hidden;rotatable=0;points=[[0,0.5],[1,0.5]];portConstraint=eastwest;" vertex="1" parent="4E2TjhoOTMDhPv9ojZg_-1638">
          <mxGeometry y="128" width="301" height="32" as="geometry" />
        </mxCell>
        <mxCell id="4E2TjhoOTMDhPv9ojZg_-1643" value="+timestamp data_criacao" style="text;strokeColor=none;fillColor=none;align=left;verticalAlign=top;spacingLeft=4;spacingRight=4;overflow=hidden;rotatable=0;points=[[0,0.5],[1,0.5]];portConstraint=eastwest;" vertex="1" parent="4E2TjhoOTMDhPv9ojZg_-1638">
          <mxGeometry y="160" width="301" height="32" as="geometry" />
        </mxCell>
        <mxCell id="4E2TjhoOTMDhPv9ojZg_-1644" style="line;strokeWidth=1;fillColor=none;align=left;verticalAlign=middle;spacingTop=-1;spacingLeft=3;spacingRight=3;rotatable=0;labelPosition=right;points=[];portConstraint=eastwest;strokeColor=inherit;" vertex="1" parent="4E2TjhoOTMDhPv9ojZg_-1638">
          <mxGeometry y="192" width="301" height="16" as="geometry" />
        </mxCell>
        <mxCell id="4E2TjhoOTMDhPv9ojZg_-1645" value="Nota" style="swimlane;fontStyle=1;align=center;verticalAlign=top;childLayout=stackLayout;horizontal=1;startSize=28.52173913043478;horizontalStack=0;resizeParent=1;resizeParentMax=0;resizeLast=0;collapsible=0;marginBottom=0;" vertex="1" parent="1">
          <mxGeometry x="4092" y="9811" width="253" height="332.52173913043475" as="geometry" />
        </mxCell>
        <mxCell id="4E2TjhoOTMDhPv9ojZg_-1646" value="+int id" style="text;strokeColor=none;fillColor=none;align=left;verticalAlign=top;spacingLeft=4;spacingRight=4;overflow=hidden;rotatable=0;points=[[0,0.5],[1,0.5]];portConstraint=eastwest;" vertex="1" parent="4E2TjhoOTMDhPv9ojZg_-1645">
          <mxGeometry y="28.52173913043478" width="253" height="29" as="geometry" />
        </mxCell>
        <mxCell id="4E2TjhoOTMDhPv9ojZg_-1647" value="+string titulo" style="text;strokeColor=none;fillColor=none;align=left;verticalAlign=top;spacingLeft=4;spacingRight=4;overflow=hidden;rotatable=0;points=[[0,0.5],[1,0.5]];portConstraint=eastwest;" vertex="1" parent="4E2TjhoOTMDhPv9ojZg_-1645">
          <mxGeometry y="57.52173913043478" width="253" height="29" as="geometry" />
        </mxCell>
        <mxCell id="4E2TjhoOTMDhPv9ojZg_-1648" value="+string descricao" style="text;strokeColor=none;fillColor=none;align=left;verticalAlign=top;spacingLeft=4;spacingRight=4;overflow=hidden;rotatable=0;points=[[0,0.5],[1,0.5]];portConstraint=eastwest;" vertex="1" parent="4E2TjhoOTMDhPv9ojZg_-1645">
          <mxGeometry y="86.52173913043478" width="253" height="29" as="geometry" />
        </mxCell>
        <mxCell id="4E2TjhoOTMDhPv9ojZg_-1649" value="+string tipo" style="text;strokeColor=none;fillColor=none;align=left;verticalAlign=top;spacingLeft=4;spacingRight=4;overflow=hidden;rotatable=0;points=[[0,0.5],[1,0.5]];portConstraint=eastwest;" vertex="1" parent="4E2TjhoOTMDhPv9ojZg_-1645">
          <mxGeometry y="115.52173913043478" width="253" height="29" as="geometry" />
        </mxCell>
        <mxCell id="4E2TjhoOTMDhPv9ojZg_-1650" value="+string status" style="text;strokeColor=none;fillColor=none;align=left;verticalAlign=top;spacingLeft=4;spacingRight=4;overflow=hidden;rotatable=0;points=[[0,0.5],[1,0.5]];portConstraint=eastwest;" vertex="1" parent="4E2TjhoOTMDhPv9ojZg_-1645">
          <mxGeometry y="144.52173913043478" width="253" height="29" as="geometry" />
        </mxCell>
        <mxCell id="4E2TjhoOTMDhPv9ojZg_-1651" value="+date data_inicio" style="text;strokeColor=none;fillColor=none;align=left;verticalAlign=top;spacingLeft=4;spacingRight=4;overflow=hidden;rotatable=0;points=[[0,0.5],[1,0.5]];portConstraint=eastwest;" vertex="1" parent="4E2TjhoOTMDhPv9ojZg_-1645">
          <mxGeometry y="173.52173913043478" width="253" height="29" as="geometry" />
        </mxCell>
        <mxCell id="4E2TjhoOTMDhPv9ojZg_-1652" value="+date data_fim" style="text;strokeColor=none;fillColor=none;align=left;verticalAlign=top;spacingLeft=4;spacingRight=4;overflow=hidden;rotatable=0;points=[[0,0.5],[1,0.5]];portConstraint=eastwest;" vertex="1" parent="4E2TjhoOTMDhPv9ojZg_-1645">
          <mxGeometry y="202.52173913043478" width="253" height="29" as="geometry" />
        </mxCell>
        <mxCell id="4E2TjhoOTMDhPv9ojZg_-1653" value="+timestamp data_criacao" style="text;strokeColor=none;fillColor=none;align=left;verticalAlign=top;spacingLeft=4;spacingRight=4;overflow=hidden;rotatable=0;points=[[0,0.5],[1,0.5]];portConstraint=eastwest;" vertex="1" parent="4E2TjhoOTMDhPv9ojZg_-1645">
          <mxGeometry y="231.52173913043478" width="253" height="29" as="geometry" />
        </mxCell>
        <mxCell id="4E2TjhoOTMDhPv9ojZg_-1654" value="+timestamp data_atualizacao" style="text;strokeColor=none;fillColor=none;align=left;verticalAlign=top;spacingLeft=4;spacingRight=4;overflow=hidden;rotatable=0;points=[[0,0.5],[1,0.5]];portConstraint=eastwest;" vertex="1" parent="4E2TjhoOTMDhPv9ojZg_-1645">
          <mxGeometry y="260.52173913043475" width="253" height="29" as="geometry" />
        </mxCell>
        <mxCell id="4E2TjhoOTMDhPv9ojZg_-1655" value="+int usuario_id" style="text;strokeColor=none;fillColor=none;align=left;verticalAlign=top;spacingLeft=4;spacingRight=4;overflow=hidden;rotatable=0;points=[[0,0.5],[1,0.5]];portConstraint=eastwest;" vertex="1" parent="4E2TjhoOTMDhPv9ojZg_-1645">
          <mxGeometry y="289.52173913043475" width="253" height="29" as="geometry" />
        </mxCell>
        <mxCell id="4E2TjhoOTMDhPv9ojZg_-1656" style="line;strokeWidth=1;fillColor=none;align=left;verticalAlign=middle;spacingTop=-1;spacingLeft=3;spacingRight=3;rotatable=0;labelPosition=right;points=[];portConstraint=eastwest;strokeColor=inherit;" vertex="1" parent="4E2TjhoOTMDhPv9ojZg_-1645">
          <mxGeometry y="318.52173913043475" width="253" height="14" as="geometry" />
        </mxCell>
        <mxCell id="4E2TjhoOTMDhPv9ojZg_-1657" value="Vinculo" style="swimlane;fontStyle=1;align=center;verticalAlign=top;childLayout=stackLayout;horizontal=1;startSize=32;horizontalStack=0;resizeParent=1;resizeParentMax=0;resizeLast=0;collapsible=0;marginBottom=0;" vertex="1" parent="1">
          <mxGeometry x="4365" y="10256" width="234" height="208" as="geometry" />
        </mxCell>
        <mxCell id="4E2TjhoOTMDhPv9ojZg_-1658" value="+int id" style="text;strokeColor=none;fillColor=none;align=left;verticalAlign=top;spacingLeft=4;spacingRight=4;overflow=hidden;rotatable=0;points=[[0,0.5],[1,0.5]];portConstraint=eastwest;" vertex="1" parent="4E2TjhoOTMDhPv9ojZg_-1657">
          <mxGeometry y="32" width="234" height="32" as="geometry" />
        </mxCell>
        <mxCell id="4E2TjhoOTMDhPv9ojZg_-1659" value="+int nota_origem_id" style="text;strokeColor=none;fillColor=none;align=left;verticalAlign=top;spacingLeft=4;spacingRight=4;overflow=hidden;rotatable=0;points=[[0,0.5],[1,0.5]];portConstraint=eastwest;" vertex="1" parent="4E2TjhoOTMDhPv9ojZg_-1657">
          <mxGeometry y="64" width="234" height="32" as="geometry" />
        </mxCell>
        <mxCell id="4E2TjhoOTMDhPv9ojZg_-1660" value="+int nota_destino_id" style="text;strokeColor=none;fillColor=none;align=left;verticalAlign=top;spacingLeft=4;spacingRight=4;overflow=hidden;rotatable=0;points=[[0,0.5],[1,0.5]];portConstraint=eastwest;" vertex="1" parent="4E2TjhoOTMDhPv9ojZg_-1657">
          <mxGeometry y="96" width="234" height="32" as="geometry" />
        </mxCell>
        <mxCell id="4E2TjhoOTMDhPv9ojZg_-1661" value="+string tipo_relacao" style="text;strokeColor=none;fillColor=none;align=left;verticalAlign=top;spacingLeft=4;spacingRight=4;overflow=hidden;rotatable=0;points=[[0,0.5],[1,0.5]];portConstraint=eastwest;" vertex="1" parent="4E2TjhoOTMDhPv9ojZg_-1657">
          <mxGeometry y="128" width="234" height="32" as="geometry" />
        </mxCell>
        <mxCell id="4E2TjhoOTMDhPv9ojZg_-1662" value="+timestamp data_criacao" style="text;strokeColor=none;fillColor=none;align=left;verticalAlign=top;spacingLeft=4;spacingRight=4;overflow=hidden;rotatable=0;points=[[0,0.5],[1,0.5]];portConstraint=eastwest;" vertex="1" parent="4E2TjhoOTMDhPv9ojZg_-1657">
          <mxGeometry y="160" width="234" height="32" as="geometry" />
        </mxCell>
        <mxCell id="4E2TjhoOTMDhPv9ojZg_-1663" style="line;strokeWidth=1;fillColor=none;align=left;verticalAlign=middle;spacingTop=-1;spacingLeft=3;spacingRight=3;rotatable=0;labelPosition=right;points=[];portConstraint=eastwest;strokeColor=inherit;" vertex="1" parent="4E2TjhoOTMDhPv9ojZg_-1657">
          <mxGeometry y="192" width="234" height="16" as="geometry" />
        </mxCell>
        <mxCell id="4E2TjhoOTMDhPv9ojZg_-1664" value="Arquivo" style="swimlane;fontStyle=1;align=center;verticalAlign=top;childLayout=stackLayout;horizontal=1;startSize=30.933333333333334;horizontalStack=0;resizeParent=1;resizeParentMax=0;resizeLast=0;collapsible=0;marginBottom=0;" vertex="1" parent="1">
          <mxGeometry x="4886" y="10244" width="231" height="231.93333333333334" as="geometry" />
        </mxCell>
        <mxCell id="4E2TjhoOTMDhPv9ojZg_-1665" value="+int id" style="text;strokeColor=none;fillColor=none;align=left;verticalAlign=top;spacingLeft=4;spacingRight=4;overflow=hidden;rotatable=0;points=[[0,0.5],[1,0.5]];portConstraint=eastwest;" vertex="1" parent="4E2TjhoOTMDhPv9ojZg_-1664">
          <mxGeometry y="30.933333333333334" width="231" height="31" as="geometry" />
        </mxCell>
        <mxCell id="4E2TjhoOTMDhPv9ojZg_-1666" value="+int nota_id" style="text;strokeColor=none;fillColor=none;align=left;verticalAlign=top;spacingLeft=4;spacingRight=4;overflow=hidden;rotatable=0;points=[[0,0.5],[1,0.5]];portConstraint=eastwest;" vertex="1" parent="4E2TjhoOTMDhPv9ojZg_-1664">
          <mxGeometry y="61.93333333333334" width="231" height="31" as="geometry" />
        </mxCell>
        <mxCell id="4E2TjhoOTMDhPv9ojZg_-1667" value="+string nome" style="text;strokeColor=none;fillColor=none;align=left;verticalAlign=top;spacingLeft=4;spacingRight=4;overflow=hidden;rotatable=0;points=[[0,0.5],[1,0.5]];portConstraint=eastwest;" vertex="1" parent="4E2TjhoOTMDhPv9ojZg_-1664">
          <mxGeometry y="92.93333333333334" width="231" height="31" as="geometry" />
        </mxCell>
        <mxCell id="4E2TjhoOTMDhPv9ojZg_-1668" value="+string caminho" style="text;strokeColor=none;fillColor=none;align=left;verticalAlign=top;spacingLeft=4;spacingRight=4;overflow=hidden;rotatable=0;points=[[0,0.5],[1,0.5]];portConstraint=eastwest;" vertex="1" parent="4E2TjhoOTMDhPv9ojZg_-1664">
          <mxGeometry y="123.93333333333334" width="231" height="31" as="geometry" />
        </mxCell>
        <mxCell id="4E2TjhoOTMDhPv9ojZg_-1669" value="+string tipo" style="text;strokeColor=none;fillColor=none;align=left;verticalAlign=top;spacingLeft=4;spacingRight=4;overflow=hidden;rotatable=0;points=[[0,0.5],[1,0.5]];portConstraint=eastwest;" vertex="1" parent="4E2TjhoOTMDhPv9ojZg_-1664">
          <mxGeometry y="154.93333333333334" width="231" height="31" as="geometry" />
        </mxCell>
        <mxCell id="4E2TjhoOTMDhPv9ojZg_-1670" value="+timestamp data_upload" style="text;strokeColor=none;fillColor=none;align=left;verticalAlign=top;spacingLeft=4;spacingRight=4;overflow=hidden;rotatable=0;points=[[0,0.5],[1,0.5]];portConstraint=eastwest;" vertex="1" parent="4E2TjhoOTMDhPv9ojZg_-1664">
          <mxGeometry y="185.93333333333334" width="231" height="31" as="geometry" />
        </mxCell>
        <mxCell id="4E2TjhoOTMDhPv9ojZg_-1671" style="line;strokeWidth=1;fillColor=none;align=left;verticalAlign=middle;spacingTop=-1;spacingLeft=3;spacingRight=3;rotatable=0;labelPosition=right;points=[];portConstraint=eastwest;strokeColor=inherit;" vertex="1" parent="4E2TjhoOTMDhPv9ojZg_-1664">
          <mxGeometry y="216.93333333333334" width="231" height="15" as="geometry" />
        </mxCell>
        <mxCell id="4E2TjhoOTMDhPv9ojZg_-1672" value="Estilo" style="swimlane;fontStyle=1;align=center;verticalAlign=top;childLayout=stackLayout;horizontal=1;startSize=32;horizontalStack=0;resizeParent=1;resizeParentMax=0;resizeLast=0;collapsible=0;marginBottom=0;" vertex="1" parent="1">
          <mxGeometry x="5207" y="10256" width="170" height="208" as="geometry" />
        </mxCell>
        <mxCell id="4E2TjhoOTMDhPv9ojZg_-1673" value="+int id" style="text;strokeColor=none;fillColor=none;align=left;verticalAlign=top;spacingLeft=4;spacingRight=4;overflow=hidden;rotatable=0;points=[[0,0.5],[1,0.5]];portConstraint=eastwest;" vertex="1" parent="4E2TjhoOTMDhPv9ojZg_-1672">
          <mxGeometry y="32" width="170" height="32" as="geometry" />
        </mxCell>
        <mxCell id="4E2TjhoOTMDhPv9ojZg_-1674" value="+int nota_id" style="text;strokeColor=none;fillColor=none;align=left;verticalAlign=top;spacingLeft=4;spacingRight=4;overflow=hidden;rotatable=0;points=[[0,0.5],[1,0.5]];portConstraint=eastwest;" vertex="1" parent="4E2TjhoOTMDhPv9ojZg_-1672">
          <mxGeometry y="64" width="170" height="32" as="geometry" />
        </mxCell>
        <mxCell id="4E2TjhoOTMDhPv9ojZg_-1675" value="+string cor_fundo" style="text;strokeColor=none;fillColor=none;align=left;verticalAlign=top;spacingLeft=4;spacingRight=4;overflow=hidden;rotatable=0;points=[[0,0.5],[1,0.5]];portConstraint=eastwest;" vertex="1" parent="4E2TjhoOTMDhPv9ojZg_-1672">
          <mxGeometry y="96" width="170" height="32" as="geometry" />
        </mxCell>
        <mxCell id="4E2TjhoOTMDhPv9ojZg_-1676" value="+string cor_texto" style="text;strokeColor=none;fillColor=none;align=left;verticalAlign=top;spacingLeft=4;spacingRight=4;overflow=hidden;rotatable=0;points=[[0,0.5],[1,0.5]];portConstraint=eastwest;" vertex="1" parent="4E2TjhoOTMDhPv9ojZg_-1672">
          <mxGeometry y="128" width="170" height="32" as="geometry" />
        </mxCell>
        <mxCell id="4E2TjhoOTMDhPv9ojZg_-1677" value="+string fonte" style="text;strokeColor=none;fillColor=none;align=left;verticalAlign=top;spacingLeft=4;spacingRight=4;overflow=hidden;rotatable=0;points=[[0,0.5],[1,0.5]];portConstraint=eastwest;" vertex="1" parent="4E2TjhoOTMDhPv9ojZg_-1672">
          <mxGeometry y="160" width="170" height="32" as="geometry" />
        </mxCell>
        <mxCell id="4E2TjhoOTMDhPv9ojZg_-1678" style="line;strokeWidth=1;fillColor=none;align=left;verticalAlign=middle;spacingTop=-1;spacingLeft=3;spacingRight=3;rotatable=0;labelPosition=right;points=[];portConstraint=eastwest;strokeColor=inherit;" vertex="1" parent="4E2TjhoOTMDhPv9ojZg_-1672">
          <mxGeometry y="192" width="170" height="16" as="geometry" />
        </mxCell>
        <mxCell id="4E2TjhoOTMDhPv9ojZg_-1679" value="LogNota" style="swimlane;fontStyle=1;align=center;verticalAlign=top;childLayout=stackLayout;horizontal=1;startSize=29.473684210526315;horizontalStack=0;resizeParent=1;resizeParentMax=0;resizeLast=0;collapsible=0;marginBottom=0;" vertex="1" parent="1">
          <mxGeometry x="3780" y="9294" width="271" height="276.4736842105263" as="geometry" />
        </mxCell>
        <mxCell id="4E2TjhoOTMDhPv9ojZg_-1680" value="+int id" style="text;strokeColor=none;fillColor=none;align=left;verticalAlign=top;spacingLeft=4;spacingRight=4;overflow=hidden;rotatable=0;points=[[0,0.5],[1,0.5]];portConstraint=eastwest;" vertex="1" parent="4E2TjhoOTMDhPv9ojZg_-1679">
          <mxGeometry y="29.473684210526315" width="271" height="29" as="geometry" />
        </mxCell>
        <mxCell id="4E2TjhoOTMDhPv9ojZg_-1681" value="+int nota_id" style="text;strokeColor=none;fillColor=none;align=left;verticalAlign=top;spacingLeft=4;spacingRight=4;overflow=hidden;rotatable=0;points=[[0,0.5],[1,0.5]];portConstraint=eastwest;" vertex="1" parent="4E2TjhoOTMDhPv9ojZg_-1679">
          <mxGeometry y="58.473684210526315" width="271" height="29" as="geometry" />
        </mxCell>
        <mxCell id="4E2TjhoOTMDhPv9ojZg_-1682" value="+int usuario_id" style="text;strokeColor=none;fillColor=none;align=left;verticalAlign=top;spacingLeft=4;spacingRight=4;overflow=hidden;rotatable=0;points=[[0,0.5],[1,0.5]];portConstraint=eastwest;" vertex="1" parent="4E2TjhoOTMDhPv9ojZg_-1679">
          <mxGeometry y="87.47368421052632" width="271" height="29" as="geometry" />
        </mxCell>
        <mxCell id="4E2TjhoOTMDhPv9ojZg_-1683" value="+string titulo_anterior" style="text;strokeColor=none;fillColor=none;align=left;verticalAlign=top;spacingLeft=4;spacingRight=4;overflow=hidden;rotatable=0;points=[[0,0.5],[1,0.5]];portConstraint=eastwest;" vertex="1" parent="4E2TjhoOTMDhPv9ojZg_-1679">
          <mxGeometry y="116.47368421052632" width="271" height="29" as="geometry" />
        </mxCell>
        <mxCell id="4E2TjhoOTMDhPv9ojZg_-1684" value="+string descricao_anterior" style="text;strokeColor=none;fillColor=none;align=left;verticalAlign=top;spacingLeft=4;spacingRight=4;overflow=hidden;rotatable=0;points=[[0,0.5],[1,0.5]];portConstraint=eastwest;" vertex="1" parent="4E2TjhoOTMDhPv9ojZg_-1679">
          <mxGeometry y="145.4736842105263" width="271" height="29" as="geometry" />
        </mxCell>
        <mxCell id="4E2TjhoOTMDhPv9ojZg_-1685" value="+string status_anterior" style="text;strokeColor=none;fillColor=none;align=left;verticalAlign=top;spacingLeft=4;spacingRight=4;overflow=hidden;rotatable=0;points=[[0,0.5],[1,0.5]];portConstraint=eastwest;" vertex="1" parent="4E2TjhoOTMDhPv9ojZg_-1679">
          <mxGeometry y="174.4736842105263" width="271" height="29" as="geometry" />
        </mxCell>
        <mxCell id="4E2TjhoOTMDhPv9ojZg_-1686" value="+string operacao" style="text;strokeColor=none;fillColor=none;align=left;verticalAlign=top;spacingLeft=4;spacingRight=4;overflow=hidden;rotatable=0;points=[[0,0.5],[1,0.5]];portConstraint=eastwest;" vertex="1" parent="4E2TjhoOTMDhPv9ojZg_-1679">
          <mxGeometry y="203.4736842105263" width="271" height="29" as="geometry" />
        </mxCell>
        <mxCell id="4E2TjhoOTMDhPv9ojZg_-1687" value="+timestamp data_modificacao" style="text;strokeColor=none;fillColor=none;align=left;verticalAlign=top;spacingLeft=4;spacingRight=4;overflow=hidden;rotatable=0;points=[[0,0.5],[1,0.5]];portConstraint=eastwest;" vertex="1" parent="4E2TjhoOTMDhPv9ojZg_-1679">
          <mxGeometry y="232.4736842105263" width="271" height="29" as="geometry" />
        </mxCell>
        <mxCell id="4E2TjhoOTMDhPv9ojZg_-1688" style="line;strokeWidth=1;fillColor=none;align=left;verticalAlign=middle;spacingTop=-1;spacingLeft=3;spacingRight=3;rotatable=0;labelPosition=right;points=[];portConstraint=eastwest;strokeColor=inherit;" vertex="1" parent="4E2TjhoOTMDhPv9ojZg_-1679">
          <mxGeometry y="261.4736842105263" width="271" height="15" as="geometry" />
        </mxCell>
        <mxCell id="4E2TjhoOTMDhPv9ojZg_-1689" value="LogTarefa" style="swimlane;fontStyle=1;align=center;verticalAlign=top;childLayout=stackLayout;horizontal=1;startSize=30.11764705882353;horizontalStack=0;resizeParent=1;resizeParentMax=0;resizeLast=0;collapsible=0;marginBottom=0;" vertex="1" parent="1">
          <mxGeometry x="4101" y="9306" width="278" height="255.11764705882354" as="geometry" />
        </mxCell>
        <mxCell id="4E2TjhoOTMDhPv9ojZg_-1690" value="+int id" style="text;strokeColor=none;fillColor=none;align=left;verticalAlign=top;spacingLeft=4;spacingRight=4;overflow=hidden;rotatable=0;points=[[0,0.5],[1,0.5]];portConstraint=eastwest;" vertex="1" parent="4E2TjhoOTMDhPv9ojZg_-1689">
          <mxGeometry y="30.11764705882353" width="278" height="30" as="geometry" />
        </mxCell>
        <mxCell id="4E2TjhoOTMDhPv9ojZg_-1691" value="+int tarefa_id" style="text;strokeColor=none;fillColor=none;align=left;verticalAlign=top;spacingLeft=4;spacingRight=4;overflow=hidden;rotatable=0;points=[[0,0.5],[1,0.5]];portConstraint=eastwest;" vertex="1" parent="4E2TjhoOTMDhPv9ojZg_-1689">
          <mxGeometry y="60.11764705882353" width="278" height="30" as="geometry" />
        </mxCell>
        <mxCell id="4E2TjhoOTMDhPv9ojZg_-1692" value="+int usuario_id" style="text;strokeColor=none;fillColor=none;align=left;verticalAlign=top;spacingLeft=4;spacingRight=4;overflow=hidden;rotatable=0;points=[[0,0.5],[1,0.5]];portConstraint=eastwest;" vertex="1" parent="4E2TjhoOTMDhPv9ojZg_-1689">
          <mxGeometry y="90.11764705882354" width="278" height="30" as="geometry" />
        </mxCell>
        <mxCell id="4E2TjhoOTMDhPv9ojZg_-1693" value="+string status_anterior" style="text;strokeColor=none;fillColor=none;align=left;verticalAlign=top;spacingLeft=4;spacingRight=4;overflow=hidden;rotatable=0;points=[[0,0.5],[1,0.5]];portConstraint=eastwest;" vertex="1" parent="4E2TjhoOTMDhPv9ojZg_-1689">
          <mxGeometry y="120.11764705882354" width="278" height="30" as="geometry" />
        </mxCell>
        <mxCell id="4E2TjhoOTMDhPv9ojZg_-1694" value="+date prazo_anterior" style="text;strokeColor=none;fillColor=none;align=left;verticalAlign=top;spacingLeft=4;spacingRight=4;overflow=hidden;rotatable=0;points=[[0,0.5],[1,0.5]];portConstraint=eastwest;" vertex="1" parent="4E2TjhoOTMDhPv9ojZg_-1689">
          <mxGeometry y="150.11764705882354" width="278" height="30" as="geometry" />
        </mxCell>
        <mxCell id="4E2TjhoOTMDhPv9ojZg_-1695" value="+string operacao" style="text;strokeColor=none;fillColor=none;align=left;verticalAlign=top;spacingLeft=4;spacingRight=4;overflow=hidden;rotatable=0;points=[[0,0.5],[1,0.5]];portConstraint=eastwest;" vertex="1" parent="4E2TjhoOTMDhPv9ojZg_-1689">
          <mxGeometry y="180.11764705882354" width="278" height="30" as="geometry" />
        </mxCell>
        <mxCell id="4E2TjhoOTMDhPv9ojZg_-1696" value="+timestamp data_modificacao" style="text;strokeColor=none;fillColor=none;align=left;verticalAlign=top;spacingLeft=4;spacingRight=4;overflow=hidden;rotatable=0;points=[[0,0.5],[1,0.5]];portConstraint=eastwest;" vertex="1" parent="4E2TjhoOTMDhPv9ojZg_-1689">
          <mxGeometry y="210.11764705882354" width="278" height="30" as="geometry" />
        </mxCell>
        <mxCell id="4E2TjhoOTMDhPv9ojZg_-1697" style="line;strokeWidth=1;fillColor=none;align=left;verticalAlign=middle;spacingTop=-1;spacingLeft=3;spacingRight=3;rotatable=0;labelPosition=right;points=[];portConstraint=eastwest;strokeColor=inherit;" vertex="1" parent="4E2TjhoOTMDhPv9ojZg_-1689">
          <mxGeometry y="240.11764705882354" width="278" height="15" as="geometry" />
        </mxCell>
        <mxCell id="4E2TjhoOTMDhPv9ojZg_-1698" value="LogVinculo" style="swimlane;fontStyle=1;align=center;verticalAlign=top;childLayout=stackLayout;horizontal=1;startSize=30.933333333333334;horizontalStack=0;resizeParent=1;resizeParentMax=0;resizeLast=0;collapsible=0;marginBottom=0;" vertex="1" parent="1">
          <mxGeometry x="4717" y="9859" width="282" height="231.93333333333334" as="geometry" />
        </mxCell>
        <mxCell id="4E2TjhoOTMDhPv9ojZg_-1699" value="+int id" style="text;strokeColor=none;fillColor=none;align=left;verticalAlign=top;spacingLeft=4;spacingRight=4;overflow=hidden;rotatable=0;points=[[0,0.5],[1,0.5]];portConstraint=eastwest;" vertex="1" parent="4E2TjhoOTMDhPv9ojZg_-1698">
          <mxGeometry y="30.933333333333334" width="282" height="31" as="geometry" />
        </mxCell>
        <mxCell id="4E2TjhoOTMDhPv9ojZg_-1700" value="+int vinculo_id" style="text;strokeColor=none;fillColor=none;align=left;verticalAlign=top;spacingLeft=4;spacingRight=4;overflow=hidden;rotatable=0;points=[[0,0.5],[1,0.5]];portConstraint=eastwest;" vertex="1" parent="4E2TjhoOTMDhPv9ojZg_-1698">
          <mxGeometry y="61.93333333333334" width="282" height="31" as="geometry" />
        </mxCell>
        <mxCell id="4E2TjhoOTMDhPv9ojZg_-1701" value="+int usuario_id" style="text;strokeColor=none;fillColor=none;align=left;verticalAlign=top;spacingLeft=4;spacingRight=4;overflow=hidden;rotatable=0;points=[[0,0.5],[1,0.5]];portConstraint=eastwest;" vertex="1" parent="4E2TjhoOTMDhPv9ojZg_-1698">
          <mxGeometry y="92.93333333333334" width="282" height="31" as="geometry" />
        </mxCell>
        <mxCell id="4E2TjhoOTMDhPv9ojZg_-1702" value="+string tipo_relacao_anterior" style="text;strokeColor=none;fillColor=none;align=left;verticalAlign=top;spacingLeft=4;spacingRight=4;overflow=hidden;rotatable=0;points=[[0,0.5],[1,0.5]];portConstraint=eastwest;" vertex="1" parent="4E2TjhoOTMDhPv9ojZg_-1698">
          <mxGeometry y="123.93333333333334" width="282" height="31" as="geometry" />
        </mxCell>
        <mxCell id="4E2TjhoOTMDhPv9ojZg_-1703" value="+string operacao" style="text;strokeColor=none;fillColor=none;align=left;verticalAlign=top;spacingLeft=4;spacingRight=4;overflow=hidden;rotatable=0;points=[[0,0.5],[1,0.5]];portConstraint=eastwest;" vertex="1" parent="4E2TjhoOTMDhPv9ojZg_-1698">
          <mxGeometry y="154.93333333333334" width="282" height="31" as="geometry" />
        </mxCell>
        <mxCell id="4E2TjhoOTMDhPv9ojZg_-1704" value="+timestamp data_modificacao" style="text;strokeColor=none;fillColor=none;align=left;verticalAlign=top;spacingLeft=4;spacingRight=4;overflow=hidden;rotatable=0;points=[[0,0.5],[1,0.5]];portConstraint=eastwest;" vertex="1" parent="4E2TjhoOTMDhPv9ojZg_-1698">
          <mxGeometry y="185.93333333333334" width="282" height="31" as="geometry" />
        </mxCell>
        <mxCell id="4E2TjhoOTMDhPv9ojZg_-1705" style="line;strokeWidth=1;fillColor=none;align=left;verticalAlign=middle;spacingTop=-1;spacingLeft=3;spacingRight=3;rotatable=0;labelPosition=right;points=[];portConstraint=eastwest;strokeColor=inherit;" vertex="1" parent="4E2TjhoOTMDhPv9ojZg_-1698">
          <mxGeometry y="216.93333333333334" width="282" height="15" as="geometry" />
        </mxCell>
        <mxCell id="4E2TjhoOTMDhPv9ojZg_-1706" value="LogArquivo" style="swimlane;fontStyle=1;align=center;verticalAlign=top;childLayout=stackLayout;horizontal=1;startSize=29.473684210526315;horizontalStack=0;resizeParent=1;resizeParentMax=0;resizeLast=0;collapsible=0;marginBottom=0;" vertex="1" parent="1">
          <mxGeometry x="5049" y="9835" width="283" height="276.4736842105263" as="geometry" />
        </mxCell>
        <mxCell id="4E2TjhoOTMDhPv9ojZg_-1707" value="+int id" style="text;strokeColor=none;fillColor=none;align=left;verticalAlign=top;spacingLeft=4;spacingRight=4;overflow=hidden;rotatable=0;points=[[0,0.5],[1,0.5]];portConstraint=eastwest;" vertex="1" parent="4E2TjhoOTMDhPv9ojZg_-1706">
          <mxGeometry y="29.473684210526315" width="283" height="29" as="geometry" />
        </mxCell>
        <mxCell id="4E2TjhoOTMDhPv9ojZg_-1708" value="+int arquivo_id" style="text;strokeColor=none;fillColor=none;align=left;verticalAlign=top;spacingLeft=4;spacingRight=4;overflow=hidden;rotatable=0;points=[[0,0.5],[1,0.5]];portConstraint=eastwest;" vertex="1" parent="4E2TjhoOTMDhPv9ojZg_-1706">
          <mxGeometry y="58.473684210526315" width="283" height="29" as="geometry" />
        </mxCell>
        <mxCell id="4E2TjhoOTMDhPv9ojZg_-1709" value="+int usuario_id" style="text;strokeColor=none;fillColor=none;align=left;verticalAlign=top;spacingLeft=4;spacingRight=4;overflow=hidden;rotatable=0;points=[[0,0.5],[1,0.5]];portConstraint=eastwest;" vertex="1" parent="4E2TjhoOTMDhPv9ojZg_-1706">
          <mxGeometry y="87.47368421052632" width="283" height="29" as="geometry" />
        </mxCell>
        <mxCell id="4E2TjhoOTMDhPv9ojZg_-1710" value="+string nome_anterior" style="text;strokeColor=none;fillColor=none;align=left;verticalAlign=top;spacingLeft=4;spacingRight=4;overflow=hidden;rotatable=0;points=[[0,0.5],[1,0.5]];portConstraint=eastwest;" vertex="1" parent="4E2TjhoOTMDhPv9ojZg_-1706">
          <mxGeometry y="116.47368421052632" width="283" height="29" as="geometry" />
        </mxCell>
        <mxCell id="4E2TjhoOTMDhPv9ojZg_-1711" value="+string caminho_anterior" style="text;strokeColor=none;fillColor=none;align=left;verticalAlign=top;spacingLeft=4;spacingRight=4;overflow=hidden;rotatable=0;points=[[0,0.5],[1,0.5]];portConstraint=eastwest;" vertex="1" parent="4E2TjhoOTMDhPv9ojZg_-1706">
          <mxGeometry y="145.4736842105263" width="283" height="29" as="geometry" />
        </mxCell>
        <mxCell id="4E2TjhoOTMDhPv9ojZg_-1712" value="+string tipo_anterior" style="text;strokeColor=none;fillColor=none;align=left;verticalAlign=top;spacingLeft=4;spacingRight=4;overflow=hidden;rotatable=0;points=[[0,0.5],[1,0.5]];portConstraint=eastwest;" vertex="1" parent="4E2TjhoOTMDhPv9ojZg_-1706">
          <mxGeometry y="174.4736842105263" width="283" height="29" as="geometry" />
        </mxCell>
        <mxCell id="4E2TjhoOTMDhPv9ojZg_-1713" value="+string operacao" style="text;strokeColor=none;fillColor=none;align=left;verticalAlign=top;spacingLeft=4;spacingRight=4;overflow=hidden;rotatable=0;points=[[0,0.5],[1,0.5]];portConstraint=eastwest;" vertex="1" parent="4E2TjhoOTMDhPv9ojZg_-1706">
          <mxGeometry y="203.4736842105263" width="283" height="29" as="geometry" />
        </mxCell>
        <mxCell id="4E2TjhoOTMDhPv9ojZg_-1714" value="+timestamp data_modificacao" style="text;strokeColor=none;fillColor=none;align=left;verticalAlign=top;spacingLeft=4;spacingRight=4;overflow=hidden;rotatable=0;points=[[0,0.5],[1,0.5]];portConstraint=eastwest;" vertex="1" parent="4E2TjhoOTMDhPv9ojZg_-1706">
          <mxGeometry y="232.4736842105263" width="283" height="29" as="geometry" />
        </mxCell>
        <mxCell id="4E2TjhoOTMDhPv9ojZg_-1715" style="line;strokeWidth=1;fillColor=none;align=left;verticalAlign=middle;spacingTop=-1;spacingLeft=3;spacingRight=3;rotatable=0;labelPosition=right;points=[];portConstraint=eastwest;strokeColor=inherit;" vertex="1" parent="4E2TjhoOTMDhPv9ojZg_-1706">
          <mxGeometry y="261.4736842105263" width="283" height="15" as="geometry" />
        </mxCell>
        <mxCell id="4E2TjhoOTMDhPv9ojZg_-1716" value="LogEstilo" style="swimlane;fontStyle=1;align=center;verticalAlign=top;childLayout=stackLayout;horizontal=1;startSize=29.473684210526315;horizontalStack=0;resizeParent=1;resizeParentMax=0;resizeLast=0;collapsible=0;marginBottom=0;" vertex="1" parent="1">
          <mxGeometry x="5382" y="9835" width="274" height="276.4736842105263" as="geometry" />
        </mxCell>
        <mxCell id="4E2TjhoOTMDhPv9ojZg_-1717" value="+int id" style="text;strokeColor=none;fillColor=none;align=left;verticalAlign=top;spacingLeft=4;spacingRight=4;overflow=hidden;rotatable=0;points=[[0,0.5],[1,0.5]];portConstraint=eastwest;" vertex="1" parent="4E2TjhoOTMDhPv9ojZg_-1716">
          <mxGeometry y="29.473684210526315" width="274" height="29" as="geometry" />
        </mxCell>
        <mxCell id="4E2TjhoOTMDhPv9ojZg_-1718" value="+int estilo_id" style="text;strokeColor=none;fillColor=none;align=left;verticalAlign=top;spacingLeft=4;spacingRight=4;overflow=hidden;rotatable=0;points=[[0,0.5],[1,0.5]];portConstraint=eastwest;" vertex="1" parent="4E2TjhoOTMDhPv9ojZg_-1716">
          <mxGeometry y="58.473684210526315" width="274" height="29" as="geometry" />
        </mxCell>
        <mxCell id="4E2TjhoOTMDhPv9ojZg_-1719" value="+int usuario_id" style="text;strokeColor=none;fillColor=none;align=left;verticalAlign=top;spacingLeft=4;spacingRight=4;overflow=hidden;rotatable=0;points=[[0,0.5],[1,0.5]];portConstraint=eastwest;" vertex="1" parent="4E2TjhoOTMDhPv9ojZg_-1716">
          <mxGeometry y="87.47368421052632" width="274" height="29" as="geometry" />
        </mxCell>
        <mxCell id="4E2TjhoOTMDhPv9ojZg_-1720" value="+string cor_fundo_anterior" style="text;strokeColor=none;fillColor=none;align=left;verticalAlign=top;spacingLeft=4;spacingRight=4;overflow=hidden;rotatable=0;points=[[0,0.5],[1,0.5]];portConstraint=eastwest;" vertex="1" parent="4E2TjhoOTMDhPv9ojZg_-1716">
          <mxGeometry y="116.47368421052632" width="274" height="29" as="geometry" />
        </mxCell>
        <mxCell id="4E2TjhoOTMDhPv9ojZg_-1721" value="+string cor_texto_anterior" style="text;strokeColor=none;fillColor=none;align=left;verticalAlign=top;spacingLeft=4;spacingRight=4;overflow=hidden;rotatable=0;points=[[0,0.5],[1,0.5]];portConstraint=eastwest;" vertex="1" parent="4E2TjhoOTMDhPv9ojZg_-1716">
          <mxGeometry y="145.4736842105263" width="274" height="29" as="geometry" />
        </mxCell>
        <mxCell id="4E2TjhoOTMDhPv9ojZg_-1722" value="+string fonte_anterior" style="text;strokeColor=none;fillColor=none;align=left;verticalAlign=top;spacingLeft=4;spacingRight=4;overflow=hidden;rotatable=0;points=[[0,0.5],[1,0.5]];portConstraint=eastwest;" vertex="1" parent="4E2TjhoOTMDhPv9ojZg_-1716">
          <mxGeometry y="174.4736842105263" width="274" height="29" as="geometry" />
        </mxCell>
        <mxCell id="4E2TjhoOTMDhPv9ojZg_-1723" value="+string operacao" style="text;strokeColor=none;fillColor=none;align=left;verticalAlign=top;spacingLeft=4;spacingRight=4;overflow=hidden;rotatable=0;points=[[0,0.5],[1,0.5]];portConstraint=eastwest;" vertex="1" parent="4E2TjhoOTMDhPv9ojZg_-1716">
          <mxGeometry y="203.4736842105263" width="274" height="29" as="geometry" />
        </mxCell>
        <mxCell id="4E2TjhoOTMDhPv9ojZg_-1724" value="+timestamp data_modificacao" style="text;strokeColor=none;fillColor=none;align=left;verticalAlign=top;spacingLeft=4;spacingRight=4;overflow=hidden;rotatable=0;points=[[0,0.5],[1,0.5]];portConstraint=eastwest;" vertex="1" parent="4E2TjhoOTMDhPv9ojZg_-1716">
          <mxGeometry y="232.4736842105263" width="274" height="29" as="geometry" />
        </mxCell>
        <mxCell id="4E2TjhoOTMDhPv9ojZg_-1725" style="line;strokeWidth=1;fillColor=none;align=left;verticalAlign=middle;spacingTop=-1;spacingLeft=3;spacingRight=3;rotatable=0;labelPosition=right;points=[];portConstraint=eastwest;strokeColor=inherit;" vertex="1" parent="4E2TjhoOTMDhPv9ojZg_-1716">
          <mxGeometry y="261.4736842105263" width="274" height="15" as="geometry" />
        </mxCell>
        <mxCell id="4E2TjhoOTMDhPv9ojZg_-1726" value="Carteira" style="swimlane;fontStyle=1;align=center;verticalAlign=top;childLayout=stackLayout;horizontal=1;startSize=30.11764705882353;horizontalStack=0;resizeParent=1;resizeParentMax=0;resizeLast=0;collapsible=0;marginBottom=0;" vertex="1" parent="1">
          <mxGeometry x="7280" y="10232" width="266" height="255.11764705882354" as="geometry" />
        </mxCell>
        <mxCell id="4E2TjhoOTMDhPv9ojZg_-1727" value="+int id" style="text;strokeColor=none;fillColor=none;align=left;verticalAlign=top;spacingLeft=4;spacingRight=4;overflow=hidden;rotatable=0;points=[[0,0.5],[1,0.5]];portConstraint=eastwest;" vertex="1" parent="4E2TjhoOTMDhPv9ojZg_-1726">
          <mxGeometry y="30.11764705882353" width="266" height="30" as="geometry" />
        </mxCell>
        <mxCell id="4E2TjhoOTMDhPv9ojZg_-1728" value="+int usuario_id" style="text;strokeColor=none;fillColor=none;align=left;verticalAlign=top;spacingLeft=4;spacingRight=4;overflow=hidden;rotatable=0;points=[[0,0.5],[1,0.5]];portConstraint=eastwest;" vertex="1" parent="4E2TjhoOTMDhPv9ojZg_-1726">
          <mxGeometry y="60.11764705882353" width="266" height="30" as="geometry" />
        </mxCell>
        <mxCell id="4E2TjhoOTMDhPv9ojZg_-1729" value="+string nome" style="text;strokeColor=none;fillColor=none;align=left;verticalAlign=top;spacingLeft=4;spacingRight=4;overflow=hidden;rotatable=0;points=[[0,0.5],[1,0.5]];portConstraint=eastwest;" vertex="1" parent="4E2TjhoOTMDhPv9ojZg_-1726">
          <mxGeometry y="90.11764705882354" width="266" height="30" as="geometry" />
        </mxCell>
        <mxCell id="4E2TjhoOTMDhPv9ojZg_-1730" value="+string tipo" style="text;strokeColor=none;fillColor=none;align=left;verticalAlign=top;spacingLeft=4;spacingRight=4;overflow=hidden;rotatable=0;points=[[0,0.5],[1,0.5]];portConstraint=eastwest;" vertex="1" parent="4E2TjhoOTMDhPv9ojZg_-1726">
          <mxGeometry y="120.11764705882354" width="266" height="30" as="geometry" />
        </mxCell>
        <mxCell id="4E2TjhoOTMDhPv9ojZg_-1731" value="+decimal saldo" style="text;strokeColor=none;fillColor=none;align=left;verticalAlign=top;spacingLeft=4;spacingRight=4;overflow=hidden;rotatable=0;points=[[0,0.5],[1,0.5]];portConstraint=eastwest;" vertex="1" parent="4E2TjhoOTMDhPv9ojZg_-1726">
          <mxGeometry y="150.11764705882354" width="266" height="30" as="geometry" />
        </mxCell>
        <mxCell id="4E2TjhoOTMDhPv9ojZg_-1732" value="+timestamp data_criacao" style="text;strokeColor=none;fillColor=none;align=left;verticalAlign=top;spacingLeft=4;spacingRight=4;overflow=hidden;rotatable=0;points=[[0,0.5],[1,0.5]];portConstraint=eastwest;" vertex="1" parent="4E2TjhoOTMDhPv9ojZg_-1726">
          <mxGeometry y="180.11764705882354" width="266" height="30" as="geometry" />
        </mxCell>
        <mxCell id="4E2TjhoOTMDhPv9ojZg_-1733" value="+timestamp data_atualizacao" style="text;strokeColor=none;fillColor=none;align=left;verticalAlign=top;spacingLeft=4;spacingRight=4;overflow=hidden;rotatable=0;points=[[0,0.5],[1,0.5]];portConstraint=eastwest;" vertex="1" parent="4E2TjhoOTMDhPv9ojZg_-1726">
          <mxGeometry y="210.11764705882354" width="266" height="30" as="geometry" />
        </mxCell>
        <mxCell id="4E2TjhoOTMDhPv9ojZg_-1734" style="line;strokeWidth=1;fillColor=none;align=left;verticalAlign=middle;spacingTop=-1;spacingLeft=3;spacingRight=3;rotatable=0;labelPosition=right;points=[];portConstraint=eastwest;strokeColor=inherit;" vertex="1" parent="4E2TjhoOTMDhPv9ojZg_-1726">
          <mxGeometry y="240.11764705882354" width="266" height="15" as="geometry" />
        </mxCell>
        <mxCell id="4E2TjhoOTMDhPv9ojZg_-1735" value="Transacao" style="swimlane;fontStyle=1;align=center;verticalAlign=top;childLayout=stackLayout;horizontal=1;startSize=28.16;horizontalStack=0;resizeParent=1;resizeParentMax=0;resizeLast=0;collapsible=0;marginBottom=0;" vertex="1" parent="1">
          <mxGeometry x="9347" y="9799" width="273" height="350.15999999999997" as="geometry" />
        </mxCell>
        <mxCell id="4E2TjhoOTMDhPv9ojZg_-1736" value="+int id" style="text;strokeColor=none;fillColor=none;align=left;verticalAlign=top;spacingLeft=4;spacingRight=4;overflow=hidden;rotatable=0;points=[[0,0.5],[1,0.5]];portConstraint=eastwest;" vertex="1" parent="4E2TjhoOTMDhPv9ojZg_-1735">
          <mxGeometry y="28.16" width="273" height="28" as="geometry" />
        </mxCell>
        <mxCell id="4E2TjhoOTMDhPv9ojZg_-1737" value="+int usuario_id" style="text;strokeColor=none;fillColor=none;align=left;verticalAlign=top;spacingLeft=4;spacingRight=4;overflow=hidden;rotatable=0;points=[[0,0.5],[1,0.5]];portConstraint=eastwest;" vertex="1" parent="4E2TjhoOTMDhPv9ojZg_-1735">
          <mxGeometry y="56.16" width="273" height="28" as="geometry" />
        </mxCell>
        <mxCell id="4E2TjhoOTMDhPv9ojZg_-1738" value="+int carteira_id" style="text;strokeColor=none;fillColor=none;align=left;verticalAlign=top;spacingLeft=4;spacingRight=4;overflow=hidden;rotatable=0;points=[[0,0.5],[1,0.5]];portConstraint=eastwest;" vertex="1" parent="4E2TjhoOTMDhPv9ojZg_-1735">
          <mxGeometry y="84.16" width="273" height="28" as="geometry" />
        </mxCell>
        <mxCell id="4E2TjhoOTMDhPv9ojZg_-1739" value="+string tipo" style="text;strokeColor=none;fillColor=none;align=left;verticalAlign=top;spacingLeft=4;spacingRight=4;overflow=hidden;rotatable=0;points=[[0,0.5],[1,0.5]];portConstraint=eastwest;" vertex="1" parent="4E2TjhoOTMDhPv9ojZg_-1735">
          <mxGeometry y="112.16" width="273" height="28" as="geometry" />
        </mxCell>
        <mxCell id="4E2TjhoOTMDhPv9ojZg_-1740" value="+decimal valor" style="text;strokeColor=none;fillColor=none;align=left;verticalAlign=top;spacingLeft=4;spacingRight=4;overflow=hidden;rotatable=0;points=[[0,0.5],[1,0.5]];portConstraint=eastwest;" vertex="1" parent="4E2TjhoOTMDhPv9ojZg_-1735">
          <mxGeometry y="140.16" width="273" height="28" as="geometry" />
        </mxCell>
        <mxCell id="4E2TjhoOTMDhPv9ojZg_-1741" value="+string metodo_pagamento" style="text;strokeColor=none;fillColor=none;align=left;verticalAlign=top;spacingLeft=4;spacingRight=4;overflow=hidden;rotatable=0;points=[[0,0.5],[1,0.5]];portConstraint=eastwest;" vertex="1" parent="4E2TjhoOTMDhPv9ojZg_-1735">
          <mxGeometry y="168.16" width="273" height="28" as="geometry" />
        </mxCell>
        <mxCell id="4E2TjhoOTMDhPv9ojZg_-1742" value="+string local" style="text;strokeColor=none;fillColor=none;align=left;verticalAlign=top;spacingLeft=4;spacingRight=4;overflow=hidden;rotatable=0;points=[[0,0.5],[1,0.5]];portConstraint=eastwest;" vertex="1" parent="4E2TjhoOTMDhPv9ojZg_-1735">
          <mxGeometry y="196.16" width="273" height="28" as="geometry" />
        </mxCell>
        <mxCell id="4E2TjhoOTMDhPv9ojZg_-1743" value="+string descricao" style="text;strokeColor=none;fillColor=none;align=left;verticalAlign=top;spacingLeft=4;spacingRight=4;overflow=hidden;rotatable=0;points=[[0,0.5],[1,0.5]];portConstraint=eastwest;" vertex="1" parent="4E2TjhoOTMDhPv9ojZg_-1735">
          <mxGeometry y="224.16" width="273" height="28" as="geometry" />
        </mxCell>
        <mxCell id="4E2TjhoOTMDhPv9ojZg_-1744" value="+timestamp data_transacao" style="text;strokeColor=none;fillColor=none;align=left;verticalAlign=top;spacingLeft=4;spacingRight=4;overflow=hidden;rotatable=0;points=[[0,0.5],[1,0.5]];portConstraint=eastwest;" vertex="1" parent="4E2TjhoOTMDhPv9ojZg_-1735">
          <mxGeometry y="252.16" width="273" height="28" as="geometry" />
        </mxCell>
        <mxCell id="4E2TjhoOTMDhPv9ojZg_-1745" value="+timestamp data_criacao" style="text;strokeColor=none;fillColor=none;align=left;verticalAlign=top;spacingLeft=4;spacingRight=4;overflow=hidden;rotatable=0;points=[[0,0.5],[1,0.5]];portConstraint=eastwest;" vertex="1" parent="4E2TjhoOTMDhPv9ojZg_-1735">
          <mxGeometry y="280.15999999999997" width="273" height="28" as="geometry" />
        </mxCell>
        <mxCell id="4E2TjhoOTMDhPv9ojZg_-1746" value="+timestamp data_atualizacao" style="text;strokeColor=none;fillColor=none;align=left;verticalAlign=top;spacingLeft=4;spacingRight=4;overflow=hidden;rotatable=0;points=[[0,0.5],[1,0.5]];portConstraint=eastwest;" vertex="1" parent="4E2TjhoOTMDhPv9ojZg_-1735">
          <mxGeometry y="308.15999999999997" width="273" height="28" as="geometry" />
        </mxCell>
        <mxCell id="4E2TjhoOTMDhPv9ojZg_-1747" style="line;strokeWidth=1;fillColor=none;align=left;verticalAlign=middle;spacingTop=-1;spacingLeft=3;spacingRight=3;rotatable=0;labelPosition=right;points=[];portConstraint=eastwest;strokeColor=inherit;" vertex="1" parent="4E2TjhoOTMDhPv9ojZg_-1735">
          <mxGeometry y="336.15999999999997" width="273" height="14" as="geometry" />
        </mxCell>
        <mxCell id="4E2TjhoOTMDhPv9ojZg_-1748" value="Label" style="swimlane;fontStyle=1;align=center;verticalAlign=top;childLayout=stackLayout;horizontal=1;startSize=35.55555555555556;horizontalStack=0;resizeParent=1;resizeParentMax=0;resizeLast=0;collapsible=0;marginBottom=0;" vertex="1" parent="1">
          <mxGeometry x="9806" y="10280" width="151" height="161.55555555555554" as="geometry" />
        </mxCell>
        <mxCell id="4E2TjhoOTMDhPv9ojZg_-1749" value="+int id" style="text;strokeColor=none;fillColor=none;align=left;verticalAlign=top;spacingLeft=4;spacingRight=4;overflow=hidden;rotatable=0;points=[[0,0.5],[1,0.5]];portConstraint=eastwest;" vertex="1" parent="4E2TjhoOTMDhPv9ojZg_-1748">
          <mxGeometry y="35.55555555555556" width="151" height="36" as="geometry" />
        </mxCell>
        <mxCell id="4E2TjhoOTMDhPv9ojZg_-1750" value="+int usuario_id" style="text;strokeColor=none;fillColor=none;align=left;verticalAlign=top;spacingLeft=4;spacingRight=4;overflow=hidden;rotatable=0;points=[[0,0.5],[1,0.5]];portConstraint=eastwest;" vertex="1" parent="4E2TjhoOTMDhPv9ojZg_-1748">
          <mxGeometry y="71.55555555555556" width="151" height="36" as="geometry" />
        </mxCell>
        <mxCell id="4E2TjhoOTMDhPv9ojZg_-1751" value="+string nome" style="text;strokeColor=none;fillColor=none;align=left;verticalAlign=top;spacingLeft=4;spacingRight=4;overflow=hidden;rotatable=0;points=[[0,0.5],[1,0.5]];portConstraint=eastwest;" vertex="1" parent="4E2TjhoOTMDhPv9ojZg_-1748">
          <mxGeometry y="107.55555555555556" width="151" height="36" as="geometry" />
        </mxCell>
        <mxCell id="4E2TjhoOTMDhPv9ojZg_-1752" style="line;strokeWidth=1;fillColor=none;align=left;verticalAlign=middle;spacingTop=-1;spacingLeft=3;spacingRight=3;rotatable=0;labelPosition=right;points=[];portConstraint=eastwest;strokeColor=inherit;" vertex="1" parent="4E2TjhoOTMDhPv9ojZg_-1748">
          <mxGeometry y="143.55555555555554" width="151" height="18" as="geometry" />
        </mxCell>
        <mxCell id="4E2TjhoOTMDhPv9ojZg_-1753" value="Transacao_Label" style="swimlane;fontStyle=1;align=center;verticalAlign=top;childLayout=stackLayout;horizontal=1;startSize=38.857142857142854;horizontalStack=0;resizeParent=1;resizeParentMax=0;resizeLast=0;collapsible=0;marginBottom=0;" vertex="1" parent="1">
          <mxGeometry x="10648" y="9366" width="210" height="135.85714285714286" as="geometry" />
        </mxCell>
        <mxCell id="4E2TjhoOTMDhPv9ojZg_-1754" value="+int transacao_id" style="text;strokeColor=none;fillColor=none;align=left;verticalAlign=top;spacingLeft=4;spacingRight=4;overflow=hidden;rotatable=0;points=[[0,0.5],[1,0.5]];portConstraint=eastwest;" vertex="1" parent="4E2TjhoOTMDhPv9ojZg_-1753">
          <mxGeometry y="38.857142857142854" width="210" height="39" as="geometry" />
        </mxCell>
        <mxCell id="4E2TjhoOTMDhPv9ojZg_-1755" value="+int label_id" style="text;strokeColor=none;fillColor=none;align=left;verticalAlign=top;spacingLeft=4;spacingRight=4;overflow=hidden;rotatable=0;points=[[0,0.5],[1,0.5]];portConstraint=eastwest;" vertex="1" parent="4E2TjhoOTMDhPv9ojZg_-1753">
          <mxGeometry y="77.85714285714286" width="210" height="39" as="geometry" />
        </mxCell>
        <mxCell id="4E2TjhoOTMDhPv9ojZg_-1756" style="line;strokeWidth=1;fillColor=none;align=left;verticalAlign=middle;spacingTop=-1;spacingLeft=3;spacingRight=3;rotatable=0;labelPosition=right;points=[];portConstraint=eastwest;strokeColor=inherit;" vertex="1" parent="4E2TjhoOTMDhPv9ojZg_-1753">
          <mxGeometry y="116.85714285714286" width="210" height="19" as="geometry" />
        </mxCell>
        <mxCell id="4E2TjhoOTMDhPv9ojZg_-1757" value="GastoFixo" style="swimlane;fontStyle=1;align=center;verticalAlign=top;childLayout=stackLayout;horizontal=1;startSize=29.473684210526315;horizontalStack=0;resizeParent=1;resizeParentMax=0;resizeLast=0;collapsible=0;marginBottom=0;" vertex="1" parent="1">
          <mxGeometry x="5706" y="9835" width="273" height="276.4736842105263" as="geometry" />
        </mxCell>
        <mxCell id="4E2TjhoOTMDhPv9ojZg_-1758" value="+int id" style="text;strokeColor=none;fillColor=none;align=left;verticalAlign=top;spacingLeft=4;spacingRight=4;overflow=hidden;rotatable=0;points=[[0,0.5],[1,0.5]];portConstraint=eastwest;" vertex="1" parent="4E2TjhoOTMDhPv9ojZg_-1757">
          <mxGeometry y="29.473684210526315" width="273" height="29" as="geometry" />
        </mxCell>
        <mxCell id="4E2TjhoOTMDhPv9ojZg_-1759" value="+int usuario_id" style="text;strokeColor=none;fillColor=none;align=left;verticalAlign=top;spacingLeft=4;spacingRight=4;overflow=hidden;rotatable=0;points=[[0,0.5],[1,0.5]];portConstraint=eastwest;" vertex="1" parent="4E2TjhoOTMDhPv9ojZg_-1757">
          <mxGeometry y="58.473684210526315" width="273" height="29" as="geometry" />
        </mxCell>
        <mxCell id="4E2TjhoOTMDhPv9ojZg_-1760" value="+int carteira_id" style="text;strokeColor=none;fillColor=none;align=left;verticalAlign=top;spacingLeft=4;spacingRight=4;overflow=hidden;rotatable=0;points=[[0,0.5],[1,0.5]];portConstraint=eastwest;" vertex="1" parent="4E2TjhoOTMDhPv9ojZg_-1757">
          <mxGeometry y="87.47368421052632" width="273" height="29" as="geometry" />
        </mxCell>
        <mxCell id="4E2TjhoOTMDhPv9ojZg_-1761" value="+string titulo" style="text;strokeColor=none;fillColor=none;align=left;verticalAlign=top;spacingLeft=4;spacingRight=4;overflow=hidden;rotatable=0;points=[[0,0.5],[1,0.5]];portConstraint=eastwest;" vertex="1" parent="4E2TjhoOTMDhPv9ojZg_-1757">
          <mxGeometry y="116.47368421052632" width="273" height="29" as="geometry" />
        </mxCell>
        <mxCell id="4E2TjhoOTMDhPv9ojZg_-1762" value="+decimal valor" style="text;strokeColor=none;fillColor=none;align=left;verticalAlign=top;spacingLeft=4;spacingRight=4;overflow=hidden;rotatable=0;points=[[0,0.5],[1,0.5]];portConstraint=eastwest;" vertex="1" parent="4E2TjhoOTMDhPv9ojZg_-1757">
          <mxGeometry y="145.4736842105263" width="273" height="29" as="geometry" />
        </mxCell>
        <mxCell id="4E2TjhoOTMDhPv9ojZg_-1763" value="+string frequencia" style="text;strokeColor=none;fillColor=none;align=left;verticalAlign=top;spacingLeft=4;spacingRight=4;overflow=hidden;rotatable=0;points=[[0,0.5],[1,0.5]];portConstraint=eastwest;" vertex="1" parent="4E2TjhoOTMDhPv9ojZg_-1757">
          <mxGeometry y="174.4736842105263" width="273" height="29" as="geometry" />
        </mxCell>
        <mxCell id="4E2TjhoOTMDhPv9ojZg_-1764" value="+timestamp data_criacao" style="text;strokeColor=none;fillColor=none;align=left;verticalAlign=top;spacingLeft=4;spacingRight=4;overflow=hidden;rotatable=0;points=[[0,0.5],[1,0.5]];portConstraint=eastwest;" vertex="1" parent="4E2TjhoOTMDhPv9ojZg_-1757">
          <mxGeometry y="203.4736842105263" width="273" height="29" as="geometry" />
        </mxCell>
        <mxCell id="4E2TjhoOTMDhPv9ojZg_-1765" value="+timestamp data_atualizacao" style="text;strokeColor=none;fillColor=none;align=left;verticalAlign=top;spacingLeft=4;spacingRight=4;overflow=hidden;rotatable=0;points=[[0,0.5],[1,0.5]];portConstraint=eastwest;" vertex="1" parent="4E2TjhoOTMDhPv9ojZg_-1757">
          <mxGeometry y="232.4736842105263" width="273" height="29" as="geometry" />
        </mxCell>
        <mxCell id="4E2TjhoOTMDhPv9ojZg_-1766" style="line;strokeWidth=1;fillColor=none;align=left;verticalAlign=middle;spacingTop=-1;spacingLeft=3;spacingRight=3;rotatable=0;labelPosition=right;points=[];portConstraint=eastwest;strokeColor=inherit;" vertex="1" parent="4E2TjhoOTMDhPv9ojZg_-1757">
          <mxGeometry y="261.4736842105263" width="273" height="15" as="geometry" />
        </mxCell>
        <mxCell id="4E2TjhoOTMDhPv9ojZg_-1767" value="LogTransacoes" style="swimlane;fontStyle=1;align=center;verticalAlign=top;childLayout=stackLayout;horizontal=1;startSize=32;horizontalStack=0;resizeParent=1;resizeParentMax=0;resizeLast=0;collapsible=0;marginBottom=0;" vertex="1" parent="1">
          <mxGeometry x="10085" y="9330" width="295" height="208" as="geometry" />
        </mxCell>
        <mxCell id="4E2TjhoOTMDhPv9ojZg_-1768" value="+int id" style="text;strokeColor=none;fillColor=none;align=left;verticalAlign=top;spacingLeft=4;spacingRight=4;overflow=hidden;rotatable=0;points=[[0,0.5],[1,0.5]];portConstraint=eastwest;" vertex="1" parent="4E2TjhoOTMDhPv9ojZg_-1767">
          <mxGeometry y="32" width="295" height="32" as="geometry" />
        </mxCell>
        <mxCell id="4E2TjhoOTMDhPv9ojZg_-1769" value="+int transacao_id" style="text;strokeColor=none;fillColor=none;align=left;verticalAlign=top;spacingLeft=4;spacingRight=4;overflow=hidden;rotatable=0;points=[[0,0.5],[1,0.5]];portConstraint=eastwest;" vertex="1" parent="4E2TjhoOTMDhPv9ojZg_-1767">
          <mxGeometry y="64" width="295" height="32" as="geometry" />
        </mxCell>
        <mxCell id="4E2TjhoOTMDhPv9ojZg_-1770" value="+int usuario_id" style="text;strokeColor=none;fillColor=none;align=left;verticalAlign=top;spacingLeft=4;spacingRight=4;overflow=hidden;rotatable=0;points=[[0,0.5],[1,0.5]];portConstraint=eastwest;" vertex="1" parent="4E2TjhoOTMDhPv9ojZg_-1767">
          <mxGeometry y="96" width="295" height="32" as="geometry" />
        </mxCell>
        <mxCell id="4E2TjhoOTMDhPv9ojZg_-1771" value="+string operacao" style="text;strokeColor=none;fillColor=none;align=left;verticalAlign=top;spacingLeft=4;spacingRight=4;overflow=hidden;rotatable=0;points=[[0,0.5],[1,0.5]];portConstraint=eastwest;" vertex="1" parent="4E2TjhoOTMDhPv9ojZg_-1767">
          <mxGeometry y="128" width="295" height="32" as="geometry" />
        </mxCell>
        <mxCell id="4E2TjhoOTMDhPv9ojZg_-1772" value="+timestamp data_modificacao" style="text;strokeColor=none;fillColor=none;align=left;verticalAlign=top;spacingLeft=4;spacingRight=4;overflow=hidden;rotatable=0;points=[[0,0.5],[1,0.5]];portConstraint=eastwest;" vertex="1" parent="4E2TjhoOTMDhPv9ojZg_-1767">
          <mxGeometry y="160" width="295" height="32" as="geometry" />
        </mxCell>
        <mxCell id="4E2TjhoOTMDhPv9ojZg_-1773" style="line;strokeWidth=1;fillColor=none;align=left;verticalAlign=middle;spacingTop=-1;spacingLeft=3;spacingRight=3;rotatable=0;labelPosition=right;points=[];portConstraint=eastwest;strokeColor=inherit;" vertex="1" parent="4E2TjhoOTMDhPv9ojZg_-1767">
          <mxGeometry y="192" width="295" height="16" as="geometry" />
        </mxCell>
        <mxCell id="4E2TjhoOTMDhPv9ojZg_-1774" value="LogCarteiras" style="swimlane;fontStyle=1;align=center;verticalAlign=top;childLayout=stackLayout;horizontal=1;startSize=32;horizontalStack=0;resizeParent=1;resizeParentMax=0;resizeLast=0;collapsible=0;marginBottom=0;" vertex="1" parent="1">
          <mxGeometry x="6380" y="9871" width="288" height="208" as="geometry" />
        </mxCell>
        <mxCell id="4E2TjhoOTMDhPv9ojZg_-1775" value="+int id" style="text;strokeColor=none;fillColor=none;align=left;verticalAlign=top;spacingLeft=4;spacingRight=4;overflow=hidden;rotatable=0;points=[[0,0.5],[1,0.5]];portConstraint=eastwest;" vertex="1" parent="4E2TjhoOTMDhPv9ojZg_-1774">
          <mxGeometry y="32" width="288" height="32" as="geometry" />
        </mxCell>
        <mxCell id="4E2TjhoOTMDhPv9ojZg_-1776" value="+int carteira_id" style="text;strokeColor=none;fillColor=none;align=left;verticalAlign=top;spacingLeft=4;spacingRight=4;overflow=hidden;rotatable=0;points=[[0,0.5],[1,0.5]];portConstraint=eastwest;" vertex="1" parent="4E2TjhoOTMDhPv9ojZg_-1774">
          <mxGeometry y="64" width="288" height="32" as="geometry" />
        </mxCell>
        <mxCell id="4E2TjhoOTMDhPv9ojZg_-1777" value="+int usuario_id" style="text;strokeColor=none;fillColor=none;align=left;verticalAlign=top;spacingLeft=4;spacingRight=4;overflow=hidden;rotatable=0;points=[[0,0.5],[1,0.5]];portConstraint=eastwest;" vertex="1" parent="4E2TjhoOTMDhPv9ojZg_-1774">
          <mxGeometry y="96" width="288" height="32" as="geometry" />
        </mxCell>
        <mxCell id="4E2TjhoOTMDhPv9ojZg_-1778" value="+string operacao" style="text;strokeColor=none;fillColor=none;align=left;verticalAlign=top;spacingLeft=4;spacingRight=4;overflow=hidden;rotatable=0;points=[[0,0.5],[1,0.5]];portConstraint=eastwest;" vertex="1" parent="4E2TjhoOTMDhPv9ojZg_-1774">
          <mxGeometry y="128" width="288" height="32" as="geometry" />
        </mxCell>
        <mxCell id="4E2TjhoOTMDhPv9ojZg_-1779" value="+timestamp data_modificacao" style="text;strokeColor=none;fillColor=none;align=left;verticalAlign=top;spacingLeft=4;spacingRight=4;overflow=hidden;rotatable=0;points=[[0,0.5],[1,0.5]];portConstraint=eastwest;" vertex="1" parent="4E2TjhoOTMDhPv9ojZg_-1774">
          <mxGeometry y="160" width="288" height="32" as="geometry" />
        </mxCell>
        <mxCell id="4E2TjhoOTMDhPv9ojZg_-1780" style="line;strokeWidth=1;fillColor=none;align=left;verticalAlign=middle;spacingTop=-1;spacingLeft=3;spacingRight=3;rotatable=0;labelPosition=right;points=[];portConstraint=eastwest;strokeColor=inherit;" vertex="1" parent="4E2TjhoOTMDhPv9ojZg_-1774">
          <mxGeometry y="192" width="288" height="16" as="geometry" />
        </mxCell>
        <mxCell id="4E2TjhoOTMDhPv9ojZg_-1781" value="LogGastosFixos" style="swimlane;fontStyle=1;align=center;verticalAlign=top;childLayout=stackLayout;horizontal=1;startSize=32;horizontalStack=0;resizeParent=1;resizeParentMax=0;resizeLast=0;collapsible=0;marginBottom=0;" vertex="1" parent="1">
          <mxGeometry x="5051" y="9330" width="298" height="208" as="geometry" />
        </mxCell>
        <mxCell id="4E2TjhoOTMDhPv9ojZg_-1782" value="+int id" style="text;strokeColor=none;fillColor=none;align=left;verticalAlign=top;spacingLeft=4;spacingRight=4;overflow=hidden;rotatable=0;points=[[0,0.5],[1,0.5]];portConstraint=eastwest;" vertex="1" parent="4E2TjhoOTMDhPv9ojZg_-1781">
          <mxGeometry y="32" width="298" height="32" as="geometry" />
        </mxCell>
        <mxCell id="4E2TjhoOTMDhPv9ojZg_-1783" value="+int gasto_fixo_id" style="text;strokeColor=none;fillColor=none;align=left;verticalAlign=top;spacingLeft=4;spacingRight=4;overflow=hidden;rotatable=0;points=[[0,0.5],[1,0.5]];portConstraint=eastwest;" vertex="1" parent="4E2TjhoOTMDhPv9ojZg_-1781">
          <mxGeometry y="64" width="298" height="32" as="geometry" />
        </mxCell>
        <mxCell id="4E2TjhoOTMDhPv9ojZg_-1784" value="+int usuario_id" style="text;strokeColor=none;fillColor=none;align=left;verticalAlign=top;spacingLeft=4;spacingRight=4;overflow=hidden;rotatable=0;points=[[0,0.5],[1,0.5]];portConstraint=eastwest;" vertex="1" parent="4E2TjhoOTMDhPv9ojZg_-1781">
          <mxGeometry y="96" width="298" height="32" as="geometry" />
        </mxCell>
        <mxCell id="4E2TjhoOTMDhPv9ojZg_-1785" value="+string operacao" style="text;strokeColor=none;fillColor=none;align=left;verticalAlign=top;spacingLeft=4;spacingRight=4;overflow=hidden;rotatable=0;points=[[0,0.5],[1,0.5]];portConstraint=eastwest;" vertex="1" parent="4E2TjhoOTMDhPv9ojZg_-1781">
          <mxGeometry y="128" width="298" height="32" as="geometry" />
        </mxCell>
        <mxCell id="4E2TjhoOTMDhPv9ojZg_-1786" value="+timestamp data_modificacao" style="text;strokeColor=none;fillColor=none;align=left;verticalAlign=top;spacingLeft=4;spacingRight=4;overflow=hidden;rotatable=0;points=[[0,0.5],[1,0.5]];portConstraint=eastwest;" vertex="1" parent="4E2TjhoOTMDhPv9ojZg_-1781">
          <mxGeometry y="160" width="298" height="32" as="geometry" />
        </mxCell>
        <mxCell id="4E2TjhoOTMDhPv9ojZg_-1787" style="line;strokeWidth=1;fillColor=none;align=left;verticalAlign=middle;spacingTop=-1;spacingLeft=3;spacingRight=3;rotatable=0;labelPosition=right;points=[];portConstraint=eastwest;strokeColor=inherit;" vertex="1" parent="4E2TjhoOTMDhPv9ojZg_-1781">
          <mxGeometry y="192" width="298" height="16" as="geometry" />
        </mxCell>
        <mxCell id="4E2TjhoOTMDhPv9ojZg_-1788" value="MedidaCorporal" style="swimlane;fontStyle=1;align=center;verticalAlign=top;childLayout=stackLayout;horizontal=1;startSize=30.933333333333334;horizontalStack=0;resizeParent=1;resizeParentMax=0;resizeLast=0;collapsible=0;marginBottom=0;" vertex="1" parent="1">
          <mxGeometry x="4396" y="9859" width="271" height="231.93333333333334" as="geometry" />
        </mxCell>
        <mxCell id="4E2TjhoOTMDhPv9ojZg_-1789" value="+int id" style="text;strokeColor=none;fillColor=none;align=left;verticalAlign=top;spacingLeft=4;spacingRight=4;overflow=hidden;rotatable=0;points=[[0,0.5],[1,0.5]];portConstraint=eastwest;" vertex="1" parent="4E2TjhoOTMDhPv9ojZg_-1788">
          <mxGeometry y="30.933333333333334" width="271" height="31" as="geometry" />
        </mxCell>
        <mxCell id="4E2TjhoOTMDhPv9ojZg_-1790" value="+int usuario_id" style="text;strokeColor=none;fillColor=none;align=left;verticalAlign=top;spacingLeft=4;spacingRight=4;overflow=hidden;rotatable=0;points=[[0,0.5],[1,0.5]];portConstraint=eastwest;" vertex="1" parent="4E2TjhoOTMDhPv9ojZg_-1788">
          <mxGeometry y="61.93333333333334" width="271" height="31" as="geometry" />
        </mxCell>
        <mxCell id="4E2TjhoOTMDhPv9ojZg_-1791" value="+string parte_corpo" style="text;strokeColor=none;fillColor=none;align=left;verticalAlign=top;spacingLeft=4;spacingRight=4;overflow=hidden;rotatable=0;points=[[0,0.5],[1,0.5]];portConstraint=eastwest;" vertex="1" parent="4E2TjhoOTMDhPv9ojZg_-1788">
          <mxGeometry y="92.93333333333334" width="271" height="31" as="geometry" />
        </mxCell>
        <mxCell id="4E2TjhoOTMDhPv9ojZg_-1792" value="+float circunferencia_cm" style="text;strokeColor=none;fillColor=none;align=left;verticalAlign=top;spacingLeft=4;spacingRight=4;overflow=hidden;rotatable=0;points=[[0,0.5],[1,0.5]];portConstraint=eastwest;" vertex="1" parent="4E2TjhoOTMDhPv9ojZg_-1788">
          <mxGeometry y="123.93333333333334" width="271" height="31" as="geometry" />
        </mxCell>
        <mxCell id="4E2TjhoOTMDhPv9ojZg_-1793" value="+float dobra_cutanea_mm" style="text;strokeColor=none;fillColor=none;align=left;verticalAlign=top;spacingLeft=4;spacingRight=4;overflow=hidden;rotatable=0;points=[[0,0.5],[1,0.5]];portConstraint=eastwest;" vertex="1" parent="4E2TjhoOTMDhPv9ojZg_-1788">
          <mxGeometry y="154.93333333333334" width="271" height="31" as="geometry" />
        </mxCell>
        <mxCell id="4E2TjhoOTMDhPv9ojZg_-1794" value="+timestamp data_registro" style="text;strokeColor=none;fillColor=none;align=left;verticalAlign=top;spacingLeft=4;spacingRight=4;overflow=hidden;rotatable=0;points=[[0,0.5],[1,0.5]];portConstraint=eastwest;" vertex="1" parent="4E2TjhoOTMDhPv9ojZg_-1788">
          <mxGeometry y="185.93333333333334" width="271" height="31" as="geometry" />
        </mxCell>
        <mxCell id="4E2TjhoOTMDhPv9ojZg_-1795" style="line;strokeWidth=1;fillColor=none;align=left;verticalAlign=middle;spacingTop=-1;spacingLeft=3;spacingRight=3;rotatable=0;labelPosition=right;points=[];portConstraint=eastwest;strokeColor=inherit;" vertex="1" parent="4E2TjhoOTMDhPv9ojZg_-1788">
          <mxGeometry y="216.93333333333334" width="271" height="15" as="geometry" />
        </mxCell>
        <mxCell id="4E2TjhoOTMDhPv9ojZg_-1796" value="Peso" style="swimlane;fontStyle=1;align=center;verticalAlign=top;childLayout=stackLayout;horizontal=1;startSize=33.45454545454545;horizontalStack=0;resizeParent=1;resizeParentMax=0;resizeLast=0;collapsible=0;marginBottom=0;" vertex="1" parent="1">
          <mxGeometry x="6718" y="9883" width="226" height="182.45454545454544" as="geometry" />
        </mxCell>
        <mxCell id="4E2TjhoOTMDhPv9ojZg_-1797" value="+int id" style="text;strokeColor=none;fillColor=none;align=left;verticalAlign=top;spacingLeft=4;spacingRight=4;overflow=hidden;rotatable=0;points=[[0,0.5],[1,0.5]];portConstraint=eastwest;" vertex="1" parent="4E2TjhoOTMDhPv9ojZg_-1796">
          <mxGeometry y="33.45454545454545" width="226" height="33" as="geometry" />
        </mxCell>
        <mxCell id="4E2TjhoOTMDhPv9ojZg_-1798" value="+int usuario_id" style="text;strokeColor=none;fillColor=none;align=left;verticalAlign=top;spacingLeft=4;spacingRight=4;overflow=hidden;rotatable=0;points=[[0,0.5],[1,0.5]];portConstraint=eastwest;" vertex="1" parent="4E2TjhoOTMDhPv9ojZg_-1796">
          <mxGeometry y="66.45454545454545" width="226" height="33" as="geometry" />
        </mxCell>
        <mxCell id="4E2TjhoOTMDhPv9ojZg_-1799" value="+float peso_kg" style="text;strokeColor=none;fillColor=none;align=left;verticalAlign=top;spacingLeft=4;spacingRight=4;overflow=hidden;rotatable=0;points=[[0,0.5],[1,0.5]];portConstraint=eastwest;" vertex="1" parent="4E2TjhoOTMDhPv9ojZg_-1796">
          <mxGeometry y="99.45454545454545" width="226" height="33" as="geometry" />
        </mxCell>
        <mxCell id="4E2TjhoOTMDhPv9ojZg_-1800" value="+timestamp data_registro" style="text;strokeColor=none;fillColor=none;align=left;verticalAlign=top;spacingLeft=4;spacingRight=4;overflow=hidden;rotatable=0;points=[[0,0.5],[1,0.5]];portConstraint=eastwest;" vertex="1" parent="4E2TjhoOTMDhPv9ojZg_-1796">
          <mxGeometry y="132.45454545454544" width="226" height="33" as="geometry" />
        </mxCell>
        <mxCell id="4E2TjhoOTMDhPv9ojZg_-1801" style="line;strokeWidth=1;fillColor=none;align=left;verticalAlign=middle;spacingTop=-1;spacingLeft=3;spacingRight=3;rotatable=0;labelPosition=right;points=[];portConstraint=eastwest;strokeColor=inherit;" vertex="1" parent="4E2TjhoOTMDhPv9ojZg_-1796">
          <mxGeometry y="165.45454545454544" width="226" height="17" as="geometry" />
        </mxCell>
        <mxCell id="4E2TjhoOTMDhPv9ojZg_-1802" value="Exercicios" style="swimlane;fontStyle=1;align=center;verticalAlign=top;childLayout=stackLayout;horizontal=1;startSize=30.11764705882353;horizontalStack=0;resizeParent=1;resizeParentMax=0;resizeLast=0;collapsible=0;marginBottom=0;" vertex="1" parent="1">
          <mxGeometry x="7039" y="9847" width="247" height="255.11764705882354" as="geometry" />
        </mxCell>
        <mxCell id="4E2TjhoOTMDhPv9ojZg_-1803" value="+int id" style="text;strokeColor=none;fillColor=none;align=left;verticalAlign=top;spacingLeft=4;spacingRight=4;overflow=hidden;rotatable=0;points=[[0,0.5],[1,0.5]];portConstraint=eastwest;" vertex="1" parent="4E2TjhoOTMDhPv9ojZg_-1802">
          <mxGeometry y="30.11764705882353" width="247" height="30" as="geometry" />
        </mxCell>
        <mxCell id="4E2TjhoOTMDhPv9ojZg_-1804" value="+int usuario_id" style="text;strokeColor=none;fillColor=none;align=left;verticalAlign=top;spacingLeft=4;spacingRight=4;overflow=hidden;rotatable=0;points=[[0,0.5],[1,0.5]];portConstraint=eastwest;" vertex="1" parent="4E2TjhoOTMDhPv9ojZg_-1802">
          <mxGeometry y="60.11764705882353" width="247" height="30" as="geometry" />
        </mxCell>
        <mxCell id="4E2TjhoOTMDhPv9ojZg_-1805" value="+string nome" style="text;strokeColor=none;fillColor=none;align=left;verticalAlign=top;spacingLeft=4;spacingRight=4;overflow=hidden;rotatable=0;points=[[0,0.5],[1,0.5]];portConstraint=eastwest;" vertex="1" parent="4E2TjhoOTMDhPv9ojZg_-1802">
          <mxGeometry y="90.11764705882354" width="247" height="30" as="geometry" />
        </mxCell>
        <mxCell id="4E2TjhoOTMDhPv9ojZg_-1806" value="+int total_acumulado" style="text;strokeColor=none;fillColor=none;align=left;verticalAlign=top;spacingLeft=4;spacingRight=4;overflow=hidden;rotatable=0;points=[[0,0.5],[1,0.5]];portConstraint=eastwest;" vertex="1" parent="4E2TjhoOTMDhPv9ojZg_-1802">
          <mxGeometry y="120.11764705882354" width="247" height="30" as="geometry" />
        </mxCell>
        <mxCell id="4E2TjhoOTMDhPv9ojZg_-1807" value="+int max_dia" style="text;strokeColor=none;fillColor=none;align=left;verticalAlign=top;spacingLeft=4;spacingRight=4;overflow=hidden;rotatable=0;points=[[0,0.5],[1,0.5]];portConstraint=eastwest;" vertex="1" parent="4E2TjhoOTMDhPv9ojZg_-1802">
          <mxGeometry y="150.11764705882354" width="247" height="30" as="geometry" />
        </mxCell>
        <mxCell id="4E2TjhoOTMDhPv9ojZg_-1808" value="+int max_sem_descanso" style="text;strokeColor=none;fillColor=none;align=left;verticalAlign=top;spacingLeft=4;spacingRight=4;overflow=hidden;rotatable=0;points=[[0,0.5],[1,0.5]];portConstraint=eastwest;" vertex="1" parent="4E2TjhoOTMDhPv9ojZg_-1802">
          <mxGeometry y="180.11764705882354" width="247" height="30" as="geometry" />
        </mxCell>
        <mxCell id="4E2TjhoOTMDhPv9ojZg_-1809" value="+timestamp data_registro" style="text;strokeColor=none;fillColor=none;align=left;verticalAlign=top;spacingLeft=4;spacingRight=4;overflow=hidden;rotatable=0;points=[[0,0.5],[1,0.5]];portConstraint=eastwest;" vertex="1" parent="4E2TjhoOTMDhPv9ojZg_-1802">
          <mxGeometry y="210.11764705882354" width="247" height="30" as="geometry" />
        </mxCell>
        <mxCell id="4E2TjhoOTMDhPv9ojZg_-1810" style="line;strokeWidth=1;fillColor=none;align=left;verticalAlign=middle;spacingTop=-1;spacingLeft=3;spacingRight=3;rotatable=0;labelPosition=right;points=[];portConstraint=eastwest;strokeColor=inherit;" vertex="1" parent="4E2TjhoOTMDhPv9ojZg_-1802">
          <mxGeometry y="240.11764705882354" width="247" height="15" as="geometry" />
        </mxCell>
        <mxCell id="4E2TjhoOTMDhPv9ojZg_-1811" value="Alimentacao" style="swimlane;fontStyle=1;align=center;verticalAlign=top;childLayout=stackLayout;horizontal=1;startSize=30.11764705882353;horizontalStack=0;resizeParent=1;resizeParentMax=0;resizeLast=0;collapsible=0;marginBottom=0;" vertex="1" parent="1">
          <mxGeometry x="8007" y="9847" width="256" height="255.11764705882354" as="geometry" />
        </mxCell>
        <mxCell id="4E2TjhoOTMDhPv9ojZg_-1812" value="+int id" style="text;strokeColor=none;fillColor=none;align=left;verticalAlign=top;spacingLeft=4;spacingRight=4;overflow=hidden;rotatable=0;points=[[0,0.5],[1,0.5]];portConstraint=eastwest;" vertex="1" parent="4E2TjhoOTMDhPv9ojZg_-1811">
          <mxGeometry y="30.11764705882353" width="256" height="30" as="geometry" />
        </mxCell>
        <mxCell id="4E2TjhoOTMDhPv9ojZg_-1813" value="+int usuario_id" style="text;strokeColor=none;fillColor=none;align=left;verticalAlign=top;spacingLeft=4;spacingRight=4;overflow=hidden;rotatable=0;points=[[0,0.5],[1,0.5]];portConstraint=eastwest;" vertex="1" parent="4E2TjhoOTMDhPv9ojZg_-1811">
          <mxGeometry y="60.11764705882353" width="256" height="30" as="geometry" />
        </mxCell>
        <mxCell id="4E2TjhoOTMDhPv9ojZg_-1814" value="+string alimento" style="text;strokeColor=none;fillColor=none;align=left;verticalAlign=top;spacingLeft=4;spacingRight=4;overflow=hidden;rotatable=0;points=[[0,0.5],[1,0.5]];portConstraint=eastwest;" vertex="1" parent="4E2TjhoOTMDhPv9ojZg_-1811">
          <mxGeometry y="90.11764705882354" width="256" height="30" as="geometry" />
        </mxCell>
        <mxCell id="4E2TjhoOTMDhPv9ojZg_-1815" value="+float quantidade_g" style="text;strokeColor=none;fillColor=none;align=left;verticalAlign=top;spacingLeft=4;spacingRight=4;overflow=hidden;rotatable=0;points=[[0,0.5],[1,0.5]];portConstraint=eastwest;" vertex="1" parent="4E2TjhoOTMDhPv9ojZg_-1811">
          <mxGeometry y="120.11764705882354" width="256" height="30" as="geometry" />
        </mxCell>
        <mxCell id="4E2TjhoOTMDhPv9ojZg_-1816" value="+float proteina_g" style="text;strokeColor=none;fillColor=none;align=left;verticalAlign=top;spacingLeft=4;spacingRight=4;overflow=hidden;rotatable=0;points=[[0,0.5],[1,0.5]];portConstraint=eastwest;" vertex="1" parent="4E2TjhoOTMDhPv9ojZg_-1811">
          <mxGeometry y="150.11764705882354" width="256" height="30" as="geometry" />
        </mxCell>
        <mxCell id="4E2TjhoOTMDhPv9ojZg_-1817" value="+float kcal" style="text;strokeColor=none;fillColor=none;align=left;verticalAlign=top;spacingLeft=4;spacingRight=4;overflow=hidden;rotatable=0;points=[[0,0.5],[1,0.5]];portConstraint=eastwest;" vertex="1" parent="4E2TjhoOTMDhPv9ojZg_-1811">
          <mxGeometry y="180.11764705882354" width="256" height="30" as="geometry" />
        </mxCell>
        <mxCell id="4E2TjhoOTMDhPv9ojZg_-1818" value="+timestamp data_registro" style="text;strokeColor=none;fillColor=none;align=left;verticalAlign=top;spacingLeft=4;spacingRight=4;overflow=hidden;rotatable=0;points=[[0,0.5],[1,0.5]];portConstraint=eastwest;" vertex="1" parent="4E2TjhoOTMDhPv9ojZg_-1811">
          <mxGeometry y="210.11764705882354" width="256" height="30" as="geometry" />
        </mxCell>
        <mxCell id="4E2TjhoOTMDhPv9ojZg_-1819" style="line;strokeWidth=1;fillColor=none;align=left;verticalAlign=middle;spacingTop=-1;spacingLeft=3;spacingRight=3;rotatable=0;labelPosition=right;points=[];portConstraint=eastwest;strokeColor=inherit;" vertex="1" parent="4E2TjhoOTMDhPv9ojZg_-1811">
          <mxGeometry y="240.11764705882354" width="256" height="15" as="geometry" />
        </mxCell>
        <mxCell id="4E2TjhoOTMDhPv9ojZg_-1820" value="Agua" style="swimlane;fontStyle=1;align=center;verticalAlign=top;childLayout=stackLayout;horizontal=1;startSize=33.45454545454545;horizontalStack=0;resizeParent=1;resizeParentMax=0;resizeLast=0;collapsible=0;marginBottom=0;" vertex="1" parent="1">
          <mxGeometry x="8350" y="9883" width="227" height="182.45454545454544" as="geometry" />
        </mxCell>
        <mxCell id="4E2TjhoOTMDhPv9ojZg_-1821" value="+int id" style="text;strokeColor=none;fillColor=none;align=left;verticalAlign=top;spacingLeft=4;spacingRight=4;overflow=hidden;rotatable=0;points=[[0,0.5],[1,0.5]];portConstraint=eastwest;" vertex="1" parent="4E2TjhoOTMDhPv9ojZg_-1820">
          <mxGeometry y="33.45454545454545" width="227" height="33" as="geometry" />
        </mxCell>
        <mxCell id="4E2TjhoOTMDhPv9ojZg_-1822" value="+int usuario_id" style="text;strokeColor=none;fillColor=none;align=left;verticalAlign=top;spacingLeft=4;spacingRight=4;overflow=hidden;rotatable=0;points=[[0,0.5],[1,0.5]];portConstraint=eastwest;" vertex="1" parent="4E2TjhoOTMDhPv9ojZg_-1820">
          <mxGeometry y="66.45454545454545" width="227" height="33" as="geometry" />
        </mxCell>
        <mxCell id="4E2TjhoOTMDhPv9ojZg_-1823" value="+float quantidade_ml" style="text;strokeColor=none;fillColor=none;align=left;verticalAlign=top;spacingLeft=4;spacingRight=4;overflow=hidden;rotatable=0;points=[[0,0.5],[1,0.5]];portConstraint=eastwest;" vertex="1" parent="4E2TjhoOTMDhPv9ojZg_-1820">
          <mxGeometry y="99.45454545454545" width="227" height="33" as="geometry" />
        </mxCell>
        <mxCell id="4E2TjhoOTMDhPv9ojZg_-1824" value="+timestamp data_registro" style="text;strokeColor=none;fillColor=none;align=left;verticalAlign=top;spacingLeft=4;spacingRight=4;overflow=hidden;rotatable=0;points=[[0,0.5],[1,0.5]];portConstraint=eastwest;" vertex="1" parent="4E2TjhoOTMDhPv9ojZg_-1820">
          <mxGeometry y="132.45454545454544" width="227" height="33" as="geometry" />
        </mxCell>
        <mxCell id="4E2TjhoOTMDhPv9ojZg_-1825" style="line;strokeWidth=1;fillColor=none;align=left;verticalAlign=middle;spacingTop=-1;spacingLeft=3;spacingRight=3;rotatable=0;labelPosition=right;points=[];portConstraint=eastwest;strokeColor=inherit;" vertex="1" parent="4E2TjhoOTMDhPv9ojZg_-1820">
          <mxGeometry y="165.45454545454544" width="227" height="17" as="geometry" />
        </mxCell>
        <mxCell id="4E2TjhoOTMDhPv9ojZg_-1826" value="Sono" style="swimlane;fontStyle=1;align=center;verticalAlign=top;childLayout=stackLayout;horizontal=1;startSize=30.933333333333334;horizontalStack=0;resizeParent=1;resizeParentMax=0;resizeLast=0;collapsible=0;marginBottom=0;" vertex="1" parent="1">
          <mxGeometry x="8679" y="9859" width="227" height="231.93333333333334" as="geometry" />
        </mxCell>
        <mxCell id="4E2TjhoOTMDhPv9ojZg_-1827" value="+int id" style="text;strokeColor=none;fillColor=none;align=left;verticalAlign=top;spacingLeft=4;spacingRight=4;overflow=hidden;rotatable=0;points=[[0,0.5],[1,0.5]];portConstraint=eastwest;" vertex="1" parent="4E2TjhoOTMDhPv9ojZg_-1826">
          <mxGeometry y="30.933333333333334" width="227" height="31" as="geometry" />
        </mxCell>
        <mxCell id="4E2TjhoOTMDhPv9ojZg_-1828" value="+int usuario_id" style="text;strokeColor=none;fillColor=none;align=left;verticalAlign=top;spacingLeft=4;spacingRight=4;overflow=hidden;rotatable=0;points=[[0,0.5],[1,0.5]];portConstraint=eastwest;" vertex="1" parent="4E2TjhoOTMDhPv9ojZg_-1826">
          <mxGeometry y="61.93333333333334" width="227" height="31" as="geometry" />
        </mxCell>
        <mxCell id="4E2TjhoOTMDhPv9ojZg_-1829" value="+time hora_dormiu" style="text;strokeColor=none;fillColor=none;align=left;verticalAlign=top;spacingLeft=4;spacingRight=4;overflow=hidden;rotatable=0;points=[[0,0.5],[1,0.5]];portConstraint=eastwest;" vertex="1" parent="4E2TjhoOTMDhPv9ojZg_-1826">
          <mxGeometry y="92.93333333333334" width="227" height="31" as="geometry" />
        </mxCell>
        <mxCell id="4E2TjhoOTMDhPv9ojZg_-1830" value="+time hora_acordou" style="text;strokeColor=none;fillColor=none;align=left;verticalAlign=top;spacingLeft=4;spacingRight=4;overflow=hidden;rotatable=0;points=[[0,0.5],[1,0.5]];portConstraint=eastwest;" vertex="1" parent="4E2TjhoOTMDhPv9ojZg_-1826">
          <mxGeometry y="123.93333333333334" width="227" height="31" as="geometry" />
        </mxCell>
        <mxCell id="4E2TjhoOTMDhPv9ojZg_-1831" value="+int qualidade_sono" style="text;strokeColor=none;fillColor=none;align=left;verticalAlign=top;spacingLeft=4;spacingRight=4;overflow=hidden;rotatable=0;points=[[0,0.5],[1,0.5]];portConstraint=eastwest;" vertex="1" parent="4E2TjhoOTMDhPv9ojZg_-1826">
          <mxGeometry y="154.93333333333334" width="227" height="31" as="geometry" />
        </mxCell>
        <mxCell id="4E2TjhoOTMDhPv9ojZg_-1832" value="+timestamp data_registro" style="text;strokeColor=none;fillColor=none;align=left;verticalAlign=top;spacingLeft=4;spacingRight=4;overflow=hidden;rotatable=0;points=[[0,0.5],[1,0.5]];portConstraint=eastwest;" vertex="1" parent="4E2TjhoOTMDhPv9ojZg_-1826">
          <mxGeometry y="185.93333333333334" width="227" height="31" as="geometry" />
        </mxCell>
        <mxCell id="4E2TjhoOTMDhPv9ojZg_-1833" style="line;strokeWidth=1;fillColor=none;align=left;verticalAlign=middle;spacingTop=-1;spacingLeft=3;spacingRight=3;rotatable=0;labelPosition=right;points=[];portConstraint=eastwest;strokeColor=inherit;" vertex="1" parent="4E2TjhoOTMDhPv9ojZg_-1826">
          <mxGeometry y="216.93333333333334" width="227" height="15" as="geometry" />
        </mxCell>
        <mxCell id="4E2TjhoOTMDhPv9ojZg_-1834" value="Suplementos" style="swimlane;fontStyle=1;align=center;verticalAlign=top;childLayout=stackLayout;horizontal=1;startSize=30.933333333333334;horizontalStack=0;resizeParent=1;resizeParentMax=0;resizeLast=0;collapsible=0;marginBottom=0;" vertex="1" parent="1">
          <mxGeometry x="9670" y="9859" width="257" height="231.93333333333334" as="geometry" />
        </mxCell>
        <mxCell id="4E2TjhoOTMDhPv9ojZg_-1835" value="+int id" style="text;strokeColor=none;fillColor=none;align=left;verticalAlign=top;spacingLeft=4;spacingRight=4;overflow=hidden;rotatable=0;points=[[0,0.5],[1,0.5]];portConstraint=eastwest;" vertex="1" parent="4E2TjhoOTMDhPv9ojZg_-1834">
          <mxGeometry y="30.933333333333334" width="257" height="31" as="geometry" />
        </mxCell>
        <mxCell id="4E2TjhoOTMDhPv9ojZg_-1836" value="+int usuario_id" style="text;strokeColor=none;fillColor=none;align=left;verticalAlign=top;spacingLeft=4;spacingRight=4;overflow=hidden;rotatable=0;points=[[0,0.5],[1,0.5]];portConstraint=eastwest;" vertex="1" parent="4E2TjhoOTMDhPv9ojZg_-1834">
          <mxGeometry y="61.93333333333334" width="257" height="31" as="geometry" />
        </mxCell>
        <mxCell id="4E2TjhoOTMDhPv9ojZg_-1837" value="+string nome" style="text;strokeColor=none;fillColor=none;align=left;verticalAlign=top;spacingLeft=4;spacingRight=4;overflow=hidden;rotatable=0;points=[[0,0.5],[1,0.5]];portConstraint=eastwest;" vertex="1" parent="4E2TjhoOTMDhPv9ojZg_-1834">
          <mxGeometry y="92.93333333333334" width="257" height="31" as="geometry" />
        </mxCell>
        <mxCell id="4E2TjhoOTMDhPv9ojZg_-1838" value="+float quantidade_total" style="text;strokeColor=none;fillColor=none;align=left;verticalAlign=top;spacingLeft=4;spacingRight=4;overflow=hidden;rotatable=0;points=[[0,0.5],[1,0.5]];portConstraint=eastwest;" vertex="1" parent="4E2TjhoOTMDhPv9ojZg_-1834">
          <mxGeometry y="123.93333333333334" width="257" height="31" as="geometry" />
        </mxCell>
        <mxCell id="4E2TjhoOTMDhPv9ojZg_-1839" value="+float quantidade_diaria" style="text;strokeColor=none;fillColor=none;align=left;verticalAlign=top;spacingLeft=4;spacingRight=4;overflow=hidden;rotatable=0;points=[[0,0.5],[1,0.5]];portConstraint=eastwest;" vertex="1" parent="4E2TjhoOTMDhPv9ojZg_-1834">
          <mxGeometry y="154.93333333333334" width="257" height="31" as="geometry" />
        </mxCell>
        <mxCell id="4E2TjhoOTMDhPv9ojZg_-1840" value="+timestamp data_registro" style="text;strokeColor=none;fillColor=none;align=left;verticalAlign=top;spacingLeft=4;spacingRight=4;overflow=hidden;rotatable=0;points=[[0,0.5],[1,0.5]];portConstraint=eastwest;" vertex="1" parent="4E2TjhoOTMDhPv9ojZg_-1834">
          <mxGeometry y="185.93333333333334" width="257" height="31" as="geometry" />
        </mxCell>
        <mxCell id="4E2TjhoOTMDhPv9ojZg_-1841" style="line;strokeWidth=1;fillColor=none;align=left;verticalAlign=middle;spacingTop=-1;spacingLeft=3;spacingRight=3;rotatable=0;labelPosition=right;points=[];portConstraint=eastwest;strokeColor=inherit;" vertex="1" parent="4E2TjhoOTMDhPv9ojZg_-1834">
          <mxGeometry y="216.93333333333334" width="257" height="15" as="geometry" />
        </mxCell>
        <mxCell id="4E2TjhoOTMDhPv9ojZg_-1842" value="Metas" style="swimlane;fontStyle=1;align=center;verticalAlign=top;childLayout=stackLayout;horizontal=1;startSize=30.933333333333334;horizontalStack=0;resizeParent=1;resizeParentMax=0;resizeLast=0;collapsible=0;marginBottom=0;" vertex="1" parent="1">
          <mxGeometry x="9977" y="9859" width="231" height="231.93333333333334" as="geometry" />
        </mxCell>
        <mxCell id="4E2TjhoOTMDhPv9ojZg_-1843" value="+int id" style="text;strokeColor=none;fillColor=none;align=left;verticalAlign=top;spacingLeft=4;spacingRight=4;overflow=hidden;rotatable=0;points=[[0,0.5],[1,0.5]];portConstraint=eastwest;" vertex="1" parent="4E2TjhoOTMDhPv9ojZg_-1842">
          <mxGeometry y="30.933333333333334" width="231" height="31" as="geometry" />
        </mxCell>
        <mxCell id="4E2TjhoOTMDhPv9ojZg_-1844" value="+int usuario_id" style="text;strokeColor=none;fillColor=none;align=left;verticalAlign=top;spacingLeft=4;spacingRight=4;overflow=hidden;rotatable=0;points=[[0,0.5],[1,0.5]];portConstraint=eastwest;" vertex="1" parent="4E2TjhoOTMDhPv9ojZg_-1842">
          <mxGeometry y="61.93333333333334" width="231" height="31" as="geometry" />
        </mxCell>
        <mxCell id="4E2TjhoOTMDhPv9ojZg_-1845" value="+string tipo_meta" style="text;strokeColor=none;fillColor=none;align=left;verticalAlign=top;spacingLeft=4;spacingRight=4;overflow=hidden;rotatable=0;points=[[0,0.5],[1,0.5]];portConstraint=eastwest;" vertex="1" parent="4E2TjhoOTMDhPv9ojZg_-1842">
          <mxGeometry y="92.93333333333334" width="231" height="31" as="geometry" />
        </mxCell>
        <mxCell id="4E2TjhoOTMDhPv9ojZg_-1846" value="+float objetivo" style="text;strokeColor=none;fillColor=none;align=left;verticalAlign=top;spacingLeft=4;spacingRight=4;overflow=hidden;rotatable=0;points=[[0,0.5],[1,0.5]];portConstraint=eastwest;" vertex="1" parent="4E2TjhoOTMDhPv9ojZg_-1842">
          <mxGeometry y="123.93333333333334" width="231" height="31" as="geometry" />
        </mxCell>
        <mxCell id="4E2TjhoOTMDhPv9ojZg_-1847" value="+float progresso" style="text;strokeColor=none;fillColor=none;align=left;verticalAlign=top;spacingLeft=4;spacingRight=4;overflow=hidden;rotatable=0;points=[[0,0.5],[1,0.5]];portConstraint=eastwest;" vertex="1" parent="4E2TjhoOTMDhPv9ojZg_-1842">
          <mxGeometry y="154.93333333333334" width="231" height="31" as="geometry" />
        </mxCell>
        <mxCell id="4E2TjhoOTMDhPv9ojZg_-1848" value="+timestamp data_registro" style="text;strokeColor=none;fillColor=none;align=left;verticalAlign=top;spacingLeft=4;spacingRight=4;overflow=hidden;rotatable=0;points=[[0,0.5],[1,0.5]];portConstraint=eastwest;" vertex="1" parent="4E2TjhoOTMDhPv9ojZg_-1842">
          <mxGeometry y="185.93333333333334" width="231" height="31" as="geometry" />
        </mxCell>
        <mxCell id="4E2TjhoOTMDhPv9ojZg_-1849" style="line;strokeWidth=1;fillColor=none;align=left;verticalAlign=middle;spacingTop=-1;spacingLeft=3;spacingRight=3;rotatable=0;labelPosition=right;points=[];portConstraint=eastwest;strokeColor=inherit;" vertex="1" parent="4E2TjhoOTMDhPv9ojZg_-1842">
          <mxGeometry y="216.93333333333334" width="231" height="15" as="geometry" />
        </mxCell>
        <mxCell id="4E2TjhoOTMDhPv9ojZg_-1850" value="LogMedidasCorpo" style="swimlane;fontStyle=1;align=center;verticalAlign=top;childLayout=stackLayout;horizontal=1;startSize=32;horizontalStack=0;resizeParent=1;resizeParentMax=0;resizeLast=0;collapsible=0;marginBottom=0;" vertex="1" parent="1">
          <mxGeometry x="5420" y="9330" width="306" height="208" as="geometry" />
        </mxCell>
        <mxCell id="4E2TjhoOTMDhPv9ojZg_-1851" value="+int id" style="text;strokeColor=none;fillColor=none;align=left;verticalAlign=top;spacingLeft=4;spacingRight=4;overflow=hidden;rotatable=0;points=[[0,0.5],[1,0.5]];portConstraint=eastwest;" vertex="1" parent="4E2TjhoOTMDhPv9ojZg_-1850">
          <mxGeometry y="32" width="306" height="32" as="geometry" />
        </mxCell>
        <mxCell id="4E2TjhoOTMDhPv9ojZg_-1852" value="+int medida_corporal_id" style="text;strokeColor=none;fillColor=none;align=left;verticalAlign=top;spacingLeft=4;spacingRight=4;overflow=hidden;rotatable=0;points=[[0,0.5],[1,0.5]];portConstraint=eastwest;" vertex="1" parent="4E2TjhoOTMDhPv9ojZg_-1850">
          <mxGeometry y="64" width="306" height="32" as="geometry" />
        </mxCell>
        <mxCell id="4E2TjhoOTMDhPv9ojZg_-1853" value="+int usuario_id" style="text;strokeColor=none;fillColor=none;align=left;verticalAlign=top;spacingLeft=4;spacingRight=4;overflow=hidden;rotatable=0;points=[[0,0.5],[1,0.5]];portConstraint=eastwest;" vertex="1" parent="4E2TjhoOTMDhPv9ojZg_-1850">
          <mxGeometry y="96" width="306" height="32" as="geometry" />
        </mxCell>
        <mxCell id="4E2TjhoOTMDhPv9ojZg_-1854" value="+string operacao" style="text;strokeColor=none;fillColor=none;align=left;verticalAlign=top;spacingLeft=4;spacingRight=4;overflow=hidden;rotatable=0;points=[[0,0.5],[1,0.5]];portConstraint=eastwest;" vertex="1" parent="4E2TjhoOTMDhPv9ojZg_-1850">
          <mxGeometry y="128" width="306" height="32" as="geometry" />
        </mxCell>
        <mxCell id="4E2TjhoOTMDhPv9ojZg_-1855" value="+timestamp data_modificacao" style="text;strokeColor=none;fillColor=none;align=left;verticalAlign=top;spacingLeft=4;spacingRight=4;overflow=hidden;rotatable=0;points=[[0,0.5],[1,0.5]];portConstraint=eastwest;" vertex="1" parent="4E2TjhoOTMDhPv9ojZg_-1850">
          <mxGeometry y="160" width="306" height="32" as="geometry" />
        </mxCell>
        <mxCell id="4E2TjhoOTMDhPv9ojZg_-1856" style="line;strokeWidth=1;fillColor=none;align=left;verticalAlign=middle;spacingTop=-1;spacingLeft=3;spacingRight=3;rotatable=0;labelPosition=right;points=[];portConstraint=eastwest;strokeColor=inherit;" vertex="1" parent="4E2TjhoOTMDhPv9ojZg_-1850">
          <mxGeometry y="192" width="306" height="16" as="geometry" />
        </mxCell>
        <mxCell id="4E2TjhoOTMDhPv9ojZg_-1857" value="LogPeso" style="swimlane;fontStyle=1;align=center;verticalAlign=top;childLayout=stackLayout;horizontal=1;startSize=32;horizontalStack=0;resizeParent=1;resizeParentMax=0;resizeLast=0;collapsible=0;marginBottom=0;" vertex="1" parent="1">
          <mxGeometry x="6253" y="9330" width="271" height="208" as="geometry" />
        </mxCell>
        <mxCell id="4E2TjhoOTMDhPv9ojZg_-1858" value="+int id" style="text;strokeColor=none;fillColor=none;align=left;verticalAlign=top;spacingLeft=4;spacingRight=4;overflow=hidden;rotatable=0;points=[[0,0.5],[1,0.5]];portConstraint=eastwest;" vertex="1" parent="4E2TjhoOTMDhPv9ojZg_-1857">
          <mxGeometry y="32" width="271" height="32" as="geometry" />
        </mxCell>
        <mxCell id="4E2TjhoOTMDhPv9ojZg_-1859" value="+int peso_id" style="text;strokeColor=none;fillColor=none;align=left;verticalAlign=top;spacingLeft=4;spacingRight=4;overflow=hidden;rotatable=0;points=[[0,0.5],[1,0.5]];portConstraint=eastwest;" vertex="1" parent="4E2TjhoOTMDhPv9ojZg_-1857">
          <mxGeometry y="64" width="271" height="32" as="geometry" />
        </mxCell>
        <mxCell id="4E2TjhoOTMDhPv9ojZg_-1860" value="+int usuario_id" style="text;strokeColor=none;fillColor=none;align=left;verticalAlign=top;spacingLeft=4;spacingRight=4;overflow=hidden;rotatable=0;points=[[0,0.5],[1,0.5]];portConstraint=eastwest;" vertex="1" parent="4E2TjhoOTMDhPv9ojZg_-1857">
          <mxGeometry y="96" width="271" height="32" as="geometry" />
        </mxCell>
        <mxCell id="4E2TjhoOTMDhPv9ojZg_-1861" value="+string operacao" style="text;strokeColor=none;fillColor=none;align=left;verticalAlign=top;spacingLeft=4;spacingRight=4;overflow=hidden;rotatable=0;points=[[0,0.5],[1,0.5]];portConstraint=eastwest;" vertex="1" parent="4E2TjhoOTMDhPv9ojZg_-1857">
          <mxGeometry y="128" width="271" height="32" as="geometry" />
        </mxCell>
        <mxCell id="4E2TjhoOTMDhPv9ojZg_-1862" value="+timestamp data_modificacao" style="text;strokeColor=none;fillColor=none;align=left;verticalAlign=top;spacingLeft=4;spacingRight=4;overflow=hidden;rotatable=0;points=[[0,0.5],[1,0.5]];portConstraint=eastwest;" vertex="1" parent="4E2TjhoOTMDhPv9ojZg_-1857">
          <mxGeometry y="160" width="271" height="32" as="geometry" />
        </mxCell>
        <mxCell id="4E2TjhoOTMDhPv9ojZg_-1863" style="line;strokeWidth=1;fillColor=none;align=left;verticalAlign=middle;spacingTop=-1;spacingLeft=3;spacingRight=3;rotatable=0;labelPosition=right;points=[];portConstraint=eastwest;strokeColor=inherit;" vertex="1" parent="4E2TjhoOTMDhPv9ojZg_-1857">
          <mxGeometry y="192" width="271" height="16" as="geometry" />
        </mxCell>
        <mxCell id="4E2TjhoOTMDhPv9ojZg_-1864" value="LogExercicios" style="swimlane;fontStyle=1;align=center;verticalAlign=top;childLayout=stackLayout;horizontal=1;startSize=32;horizontalStack=0;resizeParent=1;resizeParentMax=0;resizeLast=0;collapsible=0;marginBottom=0;" vertex="1" parent="1">
          <mxGeometry x="6574" y="9330" width="292" height="208" as="geometry" />
        </mxCell>
        <mxCell id="4E2TjhoOTMDhPv9ojZg_-1865" value="+int id" style="text;strokeColor=none;fillColor=none;align=left;verticalAlign=top;spacingLeft=4;spacingRight=4;overflow=hidden;rotatable=0;points=[[0,0.5],[1,0.5]];portConstraint=eastwest;" vertex="1" parent="4E2TjhoOTMDhPv9ojZg_-1864">
          <mxGeometry y="32" width="292" height="32" as="geometry" />
        </mxCell>
        <mxCell id="4E2TjhoOTMDhPv9ojZg_-1866" value="+int exercicio_id" style="text;strokeColor=none;fillColor=none;align=left;verticalAlign=top;spacingLeft=4;spacingRight=4;overflow=hidden;rotatable=0;points=[[0,0.5],[1,0.5]];portConstraint=eastwest;" vertex="1" parent="4E2TjhoOTMDhPv9ojZg_-1864">
          <mxGeometry y="64" width="292" height="32" as="geometry" />
        </mxCell>
        <mxCell id="4E2TjhoOTMDhPv9ojZg_-1867" value="+int usuario_id" style="text;strokeColor=none;fillColor=none;align=left;verticalAlign=top;spacingLeft=4;spacingRight=4;overflow=hidden;rotatable=0;points=[[0,0.5],[1,0.5]];portConstraint=eastwest;" vertex="1" parent="4E2TjhoOTMDhPv9ojZg_-1864">
          <mxGeometry y="96" width="292" height="32" as="geometry" />
        </mxCell>
        <mxCell id="4E2TjhoOTMDhPv9ojZg_-1868" value="+string operacao" style="text;strokeColor=none;fillColor=none;align=left;verticalAlign=top;spacingLeft=4;spacingRight=4;overflow=hidden;rotatable=0;points=[[0,0.5],[1,0.5]];portConstraint=eastwest;" vertex="1" parent="4E2TjhoOTMDhPv9ojZg_-1864">
          <mxGeometry y="128" width="292" height="32" as="geometry" />
        </mxCell>
        <mxCell id="4E2TjhoOTMDhPv9ojZg_-1869" value="+timestamp data_modificacao" style="text;strokeColor=none;fillColor=none;align=left;verticalAlign=top;spacingLeft=4;spacingRight=4;overflow=hidden;rotatable=0;points=[[0,0.5],[1,0.5]];portConstraint=eastwest;" vertex="1" parent="4E2TjhoOTMDhPv9ojZg_-1864">
          <mxGeometry y="160" width="292" height="32" as="geometry" />
        </mxCell>
        <mxCell id="4E2TjhoOTMDhPv9ojZg_-1870" style="line;strokeWidth=1;fillColor=none;align=left;verticalAlign=middle;spacingTop=-1;spacingLeft=3;spacingRight=3;rotatable=0;labelPosition=right;points=[];portConstraint=eastwest;strokeColor=inherit;" vertex="1" parent="4E2TjhoOTMDhPv9ojZg_-1864">
          <mxGeometry y="192" width="292" height="16" as="geometry" />
        </mxCell>
        <mxCell id="4E2TjhoOTMDhPv9ojZg_-1871" value="LogAlimentacao" style="swimlane;fontStyle=1;align=center;verticalAlign=top;childLayout=stackLayout;horizontal=1;startSize=32;horizontalStack=0;resizeParent=1;resizeParentMax=0;resizeLast=0;collapsible=0;marginBottom=0;" vertex="1" parent="1">
          <mxGeometry x="8387" y="9330" width="300" height="208" as="geometry" />
        </mxCell>
        <mxCell id="4E2TjhoOTMDhPv9ojZg_-1872" value="+int id" style="text;strokeColor=none;fillColor=none;align=left;verticalAlign=top;spacingLeft=4;spacingRight=4;overflow=hidden;rotatable=0;points=[[0,0.5],[1,0.5]];portConstraint=eastwest;" vertex="1" parent="4E2TjhoOTMDhPv9ojZg_-1871">
          <mxGeometry y="32" width="300" height="32" as="geometry" />
        </mxCell>
        <mxCell id="4E2TjhoOTMDhPv9ojZg_-1873" value="+int alimentacao_id" style="text;strokeColor=none;fillColor=none;align=left;verticalAlign=top;spacingLeft=4;spacingRight=4;overflow=hidden;rotatable=0;points=[[0,0.5],[1,0.5]];portConstraint=eastwest;" vertex="1" parent="4E2TjhoOTMDhPv9ojZg_-1871">
          <mxGeometry y="64" width="300" height="32" as="geometry" />
        </mxCell>
        <mxCell id="4E2TjhoOTMDhPv9ojZg_-1874" value="+int usuario_id" style="text;strokeColor=none;fillColor=none;align=left;verticalAlign=top;spacingLeft=4;spacingRight=4;overflow=hidden;rotatable=0;points=[[0,0.5],[1,0.5]];portConstraint=eastwest;" vertex="1" parent="4E2TjhoOTMDhPv9ojZg_-1871">
          <mxGeometry y="96" width="300" height="32" as="geometry" />
        </mxCell>
        <mxCell id="4E2TjhoOTMDhPv9ojZg_-1875" value="+string operacao" style="text;strokeColor=none;fillColor=none;align=left;verticalAlign=top;spacingLeft=4;spacingRight=4;overflow=hidden;rotatable=0;points=[[0,0.5],[1,0.5]];portConstraint=eastwest;" vertex="1" parent="4E2TjhoOTMDhPv9ojZg_-1871">
          <mxGeometry y="128" width="300" height="32" as="geometry" />
        </mxCell>
        <mxCell id="4E2TjhoOTMDhPv9ojZg_-1876" value="+timestamp data_modificacao" style="text;strokeColor=none;fillColor=none;align=left;verticalAlign=top;spacingLeft=4;spacingRight=4;overflow=hidden;rotatable=0;points=[[0,0.5],[1,0.5]];portConstraint=eastwest;" vertex="1" parent="4E2TjhoOTMDhPv9ojZg_-1871">
          <mxGeometry y="160" width="300" height="32" as="geometry" />
        </mxCell>
        <mxCell id="4E2TjhoOTMDhPv9ojZg_-1877" style="line;strokeWidth=1;fillColor=none;align=left;verticalAlign=middle;spacingTop=-1;spacingLeft=3;spacingRight=3;rotatable=0;labelPosition=right;points=[];portConstraint=eastwest;strokeColor=inherit;" vertex="1" parent="4E2TjhoOTMDhPv9ojZg_-1871">
          <mxGeometry y="192" width="300" height="16" as="geometry" />
        </mxCell>
        <mxCell id="4E2TjhoOTMDhPv9ojZg_-1878" value="LogAgua" style="swimlane;fontStyle=1;align=center;verticalAlign=top;childLayout=stackLayout;horizontal=1;startSize=32;horizontalStack=0;resizeParent=1;resizeParentMax=0;resizeLast=0;collapsible=0;marginBottom=0;" vertex="1" parent="1">
          <mxGeometry x="8737" y="9330" width="272" height="208" as="geometry" />
        </mxCell>
        <mxCell id="4E2TjhoOTMDhPv9ojZg_-1879" value="+int id" style="text;strokeColor=none;fillColor=none;align=left;verticalAlign=top;spacingLeft=4;spacingRight=4;overflow=hidden;rotatable=0;points=[[0,0.5],[1,0.5]];portConstraint=eastwest;" vertex="1" parent="4E2TjhoOTMDhPv9ojZg_-1878">
          <mxGeometry y="32" width="272" height="32" as="geometry" />
        </mxCell>
        <mxCell id="4E2TjhoOTMDhPv9ojZg_-1880" value="+int agua_id" style="text;strokeColor=none;fillColor=none;align=left;verticalAlign=top;spacingLeft=4;spacingRight=4;overflow=hidden;rotatable=0;points=[[0,0.5],[1,0.5]];portConstraint=eastwest;" vertex="1" parent="4E2TjhoOTMDhPv9ojZg_-1878">
          <mxGeometry y="64" width="272" height="32" as="geometry" />
        </mxCell>
        <mxCell id="4E2TjhoOTMDhPv9ojZg_-1881" value="+int usuario_id" style="text;strokeColor=none;fillColor=none;align=left;verticalAlign=top;spacingLeft=4;spacingRight=4;overflow=hidden;rotatable=0;points=[[0,0.5],[1,0.5]];portConstraint=eastwest;" vertex="1" parent="4E2TjhoOTMDhPv9ojZg_-1878">
          <mxGeometry y="96" width="272" height="32" as="geometry" />
        </mxCell>
        <mxCell id="4E2TjhoOTMDhPv9ojZg_-1882" value="+string operacao" style="text;strokeColor=none;fillColor=none;align=left;verticalAlign=top;spacingLeft=4;spacingRight=4;overflow=hidden;rotatable=0;points=[[0,0.5],[1,0.5]];portConstraint=eastwest;" vertex="1" parent="4E2TjhoOTMDhPv9ojZg_-1878">
          <mxGeometry y="128" width="272" height="32" as="geometry" />
        </mxCell>
        <mxCell id="4E2TjhoOTMDhPv9ojZg_-1883" value="+timestamp data_modificacao" style="text;strokeColor=none;fillColor=none;align=left;verticalAlign=top;spacingLeft=4;spacingRight=4;overflow=hidden;rotatable=0;points=[[0,0.5],[1,0.5]];portConstraint=eastwest;" vertex="1" parent="4E2TjhoOTMDhPv9ojZg_-1878">
          <mxGeometry y="160" width="272" height="32" as="geometry" />
        </mxCell>
        <mxCell id="4E2TjhoOTMDhPv9ojZg_-1884" style="line;strokeWidth=1;fillColor=none;align=left;verticalAlign=middle;spacingTop=-1;spacingLeft=3;spacingRight=3;rotatable=0;labelPosition=right;points=[];portConstraint=eastwest;strokeColor=inherit;" vertex="1" parent="4E2TjhoOTMDhPv9ojZg_-1878">
          <mxGeometry y="192" width="272" height="16" as="geometry" />
        </mxCell>
        <mxCell id="4E2TjhoOTMDhPv9ojZg_-1885" value="LogSono" style="swimlane;fontStyle=1;align=center;verticalAlign=top;childLayout=stackLayout;horizontal=1;startSize=32;horizontalStack=0;resizeParent=1;resizeParentMax=0;resizeLast=0;collapsible=0;marginBottom=0;" vertex="1" parent="1">
          <mxGeometry x="9060" y="9330" width="272" height="208" as="geometry" />
        </mxCell>
        <mxCell id="4E2TjhoOTMDhPv9ojZg_-1886" value="+int id" style="text;strokeColor=none;fillColor=none;align=left;verticalAlign=top;spacingLeft=4;spacingRight=4;overflow=hidden;rotatable=0;points=[[0,0.5],[1,0.5]];portConstraint=eastwest;" vertex="1" parent="4E2TjhoOTMDhPv9ojZg_-1885">
          <mxGeometry y="32" width="272" height="32" as="geometry" />
        </mxCell>
        <mxCell id="4E2TjhoOTMDhPv9ojZg_-1887" value="+int sono_id" style="text;strokeColor=none;fillColor=none;align=left;verticalAlign=top;spacingLeft=4;spacingRight=4;overflow=hidden;rotatable=0;points=[[0,0.5],[1,0.5]];portConstraint=eastwest;" vertex="1" parent="4E2TjhoOTMDhPv9ojZg_-1885">
          <mxGeometry y="64" width="272" height="32" as="geometry" />
        </mxCell>
        <mxCell id="4E2TjhoOTMDhPv9ojZg_-1888" value="+int usuario_id" style="text;strokeColor=none;fillColor=none;align=left;verticalAlign=top;spacingLeft=4;spacingRight=4;overflow=hidden;rotatable=0;points=[[0,0.5],[1,0.5]];portConstraint=eastwest;" vertex="1" parent="4E2TjhoOTMDhPv9ojZg_-1885">
          <mxGeometry y="96" width="272" height="32" as="geometry" />
        </mxCell>
        <mxCell id="4E2TjhoOTMDhPv9ojZg_-1889" value="+string operacao" style="text;strokeColor=none;fillColor=none;align=left;verticalAlign=top;spacingLeft=4;spacingRight=4;overflow=hidden;rotatable=0;points=[[0,0.5],[1,0.5]];portConstraint=eastwest;" vertex="1" parent="4E2TjhoOTMDhPv9ojZg_-1885">
          <mxGeometry y="128" width="272" height="32" as="geometry" />
        </mxCell>
        <mxCell id="4E2TjhoOTMDhPv9ojZg_-1890" value="+timestamp data_modificacao" style="text;strokeColor=none;fillColor=none;align=left;verticalAlign=top;spacingLeft=4;spacingRight=4;overflow=hidden;rotatable=0;points=[[0,0.5],[1,0.5]];portConstraint=eastwest;" vertex="1" parent="4E2TjhoOTMDhPv9ojZg_-1885">
          <mxGeometry y="160" width="272" height="32" as="geometry" />
        </mxCell>
        <mxCell id="4E2TjhoOTMDhPv9ojZg_-1891" style="line;strokeWidth=1;fillColor=none;align=left;verticalAlign=middle;spacingTop=-1;spacingLeft=3;spacingRight=3;rotatable=0;labelPosition=right;points=[];portConstraint=eastwest;strokeColor=inherit;" vertex="1" parent="4E2TjhoOTMDhPv9ojZg_-1885">
          <mxGeometry y="192" width="272" height="16" as="geometry" />
        </mxCell>
        <mxCell id="4E2TjhoOTMDhPv9ojZg_-1892" value="LogSuplementos" style="swimlane;fontStyle=1;align=center;verticalAlign=top;childLayout=stackLayout;horizontal=1;startSize=32;horizontalStack=0;resizeParent=1;resizeParentMax=0;resizeLast=0;collapsible=0;marginBottom=0;" vertex="1" parent="1">
          <mxGeometry x="9408" y="9330" width="302" height="208" as="geometry" />
        </mxCell>
        <mxCell id="4E2TjhoOTMDhPv9ojZg_-1893" value="+int id" style="text;strokeColor=none;fillColor=none;align=left;verticalAlign=top;spacingLeft=4;spacingRight=4;overflow=hidden;rotatable=0;points=[[0,0.5],[1,0.5]];portConstraint=eastwest;" vertex="1" parent="4E2TjhoOTMDhPv9ojZg_-1892">
          <mxGeometry y="32" width="302" height="32" as="geometry" />
        </mxCell>
        <mxCell id="4E2TjhoOTMDhPv9ojZg_-1894" value="+int suplemento_id" style="text;strokeColor=none;fillColor=none;align=left;verticalAlign=top;spacingLeft=4;spacingRight=4;overflow=hidden;rotatable=0;points=[[0,0.5],[1,0.5]];portConstraint=eastwest;" vertex="1" parent="4E2TjhoOTMDhPv9ojZg_-1892">
          <mxGeometry y="64" width="302" height="32" as="geometry" />
        </mxCell>
        <mxCell id="4E2TjhoOTMDhPv9ojZg_-1895" value="+int usuario_id" style="text;strokeColor=none;fillColor=none;align=left;verticalAlign=top;spacingLeft=4;spacingRight=4;overflow=hidden;rotatable=0;points=[[0,0.5],[1,0.5]];portConstraint=eastwest;" vertex="1" parent="4E2TjhoOTMDhPv9ojZg_-1892">
          <mxGeometry y="96" width="302" height="32" as="geometry" />
        </mxCell>
        <mxCell id="4E2TjhoOTMDhPv9ojZg_-1896" value="+string operacao" style="text;strokeColor=none;fillColor=none;align=left;verticalAlign=top;spacingLeft=4;spacingRight=4;overflow=hidden;rotatable=0;points=[[0,0.5],[1,0.5]];portConstraint=eastwest;" vertex="1" parent="4E2TjhoOTMDhPv9ojZg_-1892">
          <mxGeometry y="128" width="302" height="32" as="geometry" />
        </mxCell>
        <mxCell id="4E2TjhoOTMDhPv9ojZg_-1897" value="+timestamp data_modificacao" style="text;strokeColor=none;fillColor=none;align=left;verticalAlign=top;spacingLeft=4;spacingRight=4;overflow=hidden;rotatable=0;points=[[0,0.5],[1,0.5]];portConstraint=eastwest;" vertex="1" parent="4E2TjhoOTMDhPv9ojZg_-1892">
          <mxGeometry y="160" width="302" height="32" as="geometry" />
        </mxCell>
        <mxCell id="4E2TjhoOTMDhPv9ojZg_-1898" style="line;strokeWidth=1;fillColor=none;align=left;verticalAlign=middle;spacingTop=-1;spacingLeft=3;spacingRight=3;rotatable=0;labelPosition=right;points=[];portConstraint=eastwest;strokeColor=inherit;" vertex="1" parent="4E2TjhoOTMDhPv9ojZg_-1892">
          <mxGeometry y="192" width="302" height="16" as="geometry" />
        </mxCell>
        <mxCell id="4E2TjhoOTMDhPv9ojZg_-1899" value="LogMetas" style="swimlane;fontStyle=1;align=center;verticalAlign=top;childLayout=stackLayout;horizontal=1;startSize=32;horizontalStack=0;resizeParent=1;resizeParentMax=0;resizeLast=0;collapsible=0;marginBottom=0;" vertex="1" parent="1">
          <mxGeometry x="9760" y="9330" width="275" height="208" as="geometry" />
        </mxCell>
        <mxCell id="4E2TjhoOTMDhPv9ojZg_-1900" value="+int id" style="text;strokeColor=none;fillColor=none;align=left;verticalAlign=top;spacingLeft=4;spacingRight=4;overflow=hidden;rotatable=0;points=[[0,0.5],[1,0.5]];portConstraint=eastwest;" vertex="1" parent="4E2TjhoOTMDhPv9ojZg_-1899">
          <mxGeometry y="32" width="275" height="32" as="geometry" />
        </mxCell>
        <mxCell id="4E2TjhoOTMDhPv9ojZg_-1901" value="+int meta_id" style="text;strokeColor=none;fillColor=none;align=left;verticalAlign=top;spacingLeft=4;spacingRight=4;overflow=hidden;rotatable=0;points=[[0,0.5],[1,0.5]];portConstraint=eastwest;" vertex="1" parent="4E2TjhoOTMDhPv9ojZg_-1899">
          <mxGeometry y="64" width="275" height="32" as="geometry" />
        </mxCell>
        <mxCell id="4E2TjhoOTMDhPv9ojZg_-1902" value="+int usuario_id" style="text;strokeColor=none;fillColor=none;align=left;verticalAlign=top;spacingLeft=4;spacingRight=4;overflow=hidden;rotatable=0;points=[[0,0.5],[1,0.5]];portConstraint=eastwest;" vertex="1" parent="4E2TjhoOTMDhPv9ojZg_-1899">
          <mxGeometry y="96" width="275" height="32" as="geometry" />
        </mxCell>
        <mxCell id="4E2TjhoOTMDhPv9ojZg_-1903" value="+string operacao" style="text;strokeColor=none;fillColor=none;align=left;verticalAlign=top;spacingLeft=4;spacingRight=4;overflow=hidden;rotatable=0;points=[[0,0.5],[1,0.5]];portConstraint=eastwest;" vertex="1" parent="4E2TjhoOTMDhPv9ojZg_-1899">
          <mxGeometry y="128" width="275" height="32" as="geometry" />
        </mxCell>
        <mxCell id="4E2TjhoOTMDhPv9ojZg_-1904" value="+timestamp data_modificacao" style="text;strokeColor=none;fillColor=none;align=left;verticalAlign=top;spacingLeft=4;spacingRight=4;overflow=hidden;rotatable=0;points=[[0,0.5],[1,0.5]];portConstraint=eastwest;" vertex="1" parent="4E2TjhoOTMDhPv9ojZg_-1899">
          <mxGeometry y="160" width="275" height="32" as="geometry" />
        </mxCell>
        <mxCell id="4E2TjhoOTMDhPv9ojZg_-1905" style="line;strokeWidth=1;fillColor=none;align=left;verticalAlign=middle;spacingTop=-1;spacingLeft=3;spacingRight=3;rotatable=0;labelPosition=right;points=[];portConstraint=eastwest;strokeColor=inherit;" vertex="1" parent="4E2TjhoOTMDhPv9ojZg_-1899">
          <mxGeometry y="192" width="275" height="16" as="geometry" />
        </mxCell>
        <mxCell id="4E2TjhoOTMDhPv9ojZg_-1906" value="Possui" style="curved=1;startArrow=none;endArrow=open;endSize=12;exitX=0;exitY=0.62;entryX=1;entryY=0.3;rounded=0;" edge="1" parent="1" source="4E2TjhoOTMDhPv9ojZg_-1616" target="4E2TjhoOTMDhPv9ojZg_-1638">
          <mxGeometry relative="1" as="geometry">
            <Array as="points">
              <mxPoint x="6934" y="9763" />
            </Array>
          </mxGeometry>
        </mxCell>
        <mxCell id="4E2TjhoOTMDhPv9ojZg_-1907" value="1" style="edgeLabel;resizable=0;labelBackgroundColor=none;fontSize=12;align=left;verticalAlign=bottom;" vertex="1" parent="4E2TjhoOTMDhPv9ojZg_-1906">
          <mxGeometry x="1" relative="1" as="geometry" />
        </mxCell>
        <mxCell id="4E2TjhoOTMDhPv9ojZg_-1908" value="Criar/Editar/Excluir" style="curved=1;startArrow=none;endArrow=open;endSize=12;exitX=0;exitY=0.88;entryX=1;entryY=0.47;rounded=0;" edge="1" parent="1" source="4E2TjhoOTMDhPv9ojZg_-1616" target="4E2TjhoOTMDhPv9ojZg_-1645">
          <mxGeometry relative="1" as="geometry">
            <Array as="points">
              <mxPoint x="7362" y="9763" />
            </Array>
          </mxGeometry>
        </mxCell>
        <mxCell id="4E2TjhoOTMDhPv9ojZg_-1909" value="1" style="edgeLabel;resizable=0;labelBackgroundColor=none;fontSize=12;align=left;verticalAlign=bottom;" vertex="1" parent="4E2TjhoOTMDhPv9ojZg_-1908">
          <mxGeometry x="1" relative="1" as="geometry" />
        </mxCell>
        <mxCell id="4E2TjhoOTMDhPv9ojZg_-1910" value="Tem" style="curved=1;startArrow=none;endArrow=open;endSize=12;exitX=0;exitY=0.94;entryX=0;entryY=0.3;rounded=0;" edge="1" parent="1" source="4E2TjhoOTMDhPv9ojZg_-1645" target="4E2TjhoOTMDhPv9ojZg_-1657">
          <mxGeometry relative="1" as="geometry">
            <Array as="points">
              <mxPoint x="4035" y="10196" />
            </Array>
          </mxGeometry>
        </mxCell>
        <mxCell id="4E2TjhoOTMDhPv9ojZg_-1911" value="1" style="edgeLabel;resizable=0;labelBackgroundColor=none;fontSize=12;align=left;verticalAlign=top;" vertex="1" parent="4E2TjhoOTMDhPv9ojZg_-1910">
          <mxGeometry x="-1" relative="1" as="geometry" />
        </mxCell>
        <mxCell id="4E2TjhoOTMDhPv9ojZg_-1912" value="0..*" style="edgeLabel;resizable=0;labelBackgroundColor=none;fontSize=12;align=right;verticalAlign=bottom;" vertex="1" parent="4E2TjhoOTMDhPv9ojZg_-1910">
          <mxGeometry x="1" relative="1" as="geometry" />
        </mxCell>
        <mxCell id="4E2TjhoOTMDhPv9ojZg_-1913" value="Contém" style="curved=1;startArrow=none;endArrow=open;endSize=12;exitX=0.32;exitY=1;entryX=0;entryY=0.4;rounded=0;" edge="1" parent="1" source="4E2TjhoOTMDhPv9ojZg_-1645" target="4E2TjhoOTMDhPv9ojZg_-1664">
          <mxGeometry relative="1" as="geometry">
            <Array as="points">
              <mxPoint x="4158" y="10196" />
            </Array>
          </mxGeometry>
        </mxCell>
        <mxCell id="4E2TjhoOTMDhPv9ojZg_-1914" value="1" style="edgeLabel;resizable=0;labelBackgroundColor=none;fontSize=12;align=left;verticalAlign=top;" vertex="1" parent="4E2TjhoOTMDhPv9ojZg_-1913">
          <mxGeometry x="-1" relative="1" as="geometry" />
        </mxCell>
        <mxCell id="4E2TjhoOTMDhPv9ojZg_-1915" value="0..*" style="edgeLabel;resizable=0;labelBackgroundColor=none;fontSize=12;align=right;verticalAlign=bottom;" vertex="1" parent="4E2TjhoOTMDhPv9ojZg_-1913">
          <mxGeometry x="1" relative="1" as="geometry" />
        </mxCell>
        <mxCell id="4E2TjhoOTMDhPv9ojZg_-1916" value="Tem Personalização" style="curved=1;startArrow=none;endArrow=open;endSize=12;exitX=1;exitY=0.81;entryX=0;entryY=0.42;rounded=0;" edge="1" parent="1" source="4E2TjhoOTMDhPv9ojZg_-1645" target="4E2TjhoOTMDhPv9ojZg_-1672">
          <mxGeometry relative="1" as="geometry">
            <Array as="points">
              <mxPoint x="4485" y="10196" />
            </Array>
          </mxGeometry>
        </mxCell>
        <mxCell id="4E2TjhoOTMDhPv9ojZg_-1917" value="1" style="edgeLabel;resizable=0;labelBackgroundColor=none;fontSize=12;align=left;verticalAlign=top;" vertex="1" parent="4E2TjhoOTMDhPv9ojZg_-1916">
          <mxGeometry x="-1" relative="1" as="geometry" />
        </mxCell>
        <mxCell id="4E2TjhoOTMDhPv9ojZg_-1918" value="0..*" style="edgeLabel;resizable=0;labelBackgroundColor=none;fontSize=12;align=right;verticalAlign=bottom;" vertex="1" parent="4E2TjhoOTMDhPv9ojZg_-1916">
          <mxGeometry x="1" relative="1" as="geometry" />
        </mxCell>
        <mxCell id="4E2TjhoOTMDhPv9ojZg_-1919" value="Log" style="curved=1;startArrow=none;endArrow=open;endSize=12;exitX=0.5;exitY=1;entryX=0;entryY=0.23;rounded=0;" edge="1" parent="1" source="4E2TjhoOTMDhPv9ojZg_-1679" target="4E2TjhoOTMDhPv9ojZg_-1645">
          <mxGeometry relative="1" as="geometry">
            <Array as="points">
              <mxPoint x="3916" y="9763" />
            </Array>
          </mxGeometry>
        </mxCell>
        <mxCell id="4E2TjhoOTMDhPv9ojZg_-1920" value="1" style="edgeLabel;resizable=0;labelBackgroundColor=none;fontSize=12;align=right;verticalAlign=bottom;" vertex="1" parent="4E2TjhoOTMDhPv9ojZg_-1919">
          <mxGeometry x="1" relative="1" as="geometry" />
        </mxCell>
        <mxCell id="4E2TjhoOTMDhPv9ojZg_-1921" value="Log" style="curved=1;startArrow=none;endArrow=open;endSize=12;exitX=0.5;exitY=1;entryX=0.57;entryY=0;rounded=0;" edge="1" parent="1" source="4E2TjhoOTMDhPv9ojZg_-1689" target="4E2TjhoOTMDhPv9ojZg_-1645">
          <mxGeometry relative="1" as="geometry">
            <Array as="points">
              <mxPoint x="4240" y="9763" />
            </Array>
          </mxGeometry>
        </mxCell>
        <mxCell id="4E2TjhoOTMDhPv9ojZg_-1922" value="1" style="edgeLabel;resizable=0;labelBackgroundColor=none;fontSize=12;align=left;verticalAlign=bottom;" vertex="1" parent="4E2TjhoOTMDhPv9ojZg_-1921">
          <mxGeometry x="1" relative="1" as="geometry" />
        </mxCell>
        <mxCell id="4E2TjhoOTMDhPv9ojZg_-1923" value="Log" style="curved=1;startArrow=none;endArrow=open;endSize=12;exitX=0.5;exitY=1;entryX=1;entryY=0.26;rounded=0;" edge="1" parent="1" source="4E2TjhoOTMDhPv9ojZg_-1698" target="4E2TjhoOTMDhPv9ojZg_-1657">
          <mxGeometry relative="1" as="geometry">
            <Array as="points">
              <mxPoint x="4858" y="10196" />
            </Array>
          </mxGeometry>
        </mxCell>
        <mxCell id="4E2TjhoOTMDhPv9ojZg_-1924" value="1" style="edgeLabel;resizable=0;labelBackgroundColor=none;fontSize=12;align=left;verticalAlign=bottom;" vertex="1" parent="4E2TjhoOTMDhPv9ojZg_-1923">
          <mxGeometry x="1" relative="1" as="geometry" />
        </mxCell>
        <mxCell id="4E2TjhoOTMDhPv9ojZg_-1925" value="Log" style="curved=1;startArrow=none;endArrow=open;endSize=12;exitX=0.5;exitY=1;entryX=1;entryY=0.07;rounded=0;" edge="1" parent="1" source="4E2TjhoOTMDhPv9ojZg_-1706" target="4E2TjhoOTMDhPv9ojZg_-1664">
          <mxGeometry relative="1" as="geometry">
            <Array as="points">
              <mxPoint x="5190" y="10196" />
            </Array>
          </mxGeometry>
        </mxCell>
        <mxCell id="4E2TjhoOTMDhPv9ojZg_-1926" value="1" style="edgeLabel;resizable=0;labelBackgroundColor=none;fontSize=12;align=left;verticalAlign=bottom;" vertex="1" parent="4E2TjhoOTMDhPv9ojZg_-1925">
          <mxGeometry x="1" relative="1" as="geometry" />
        </mxCell>
        <mxCell id="4E2TjhoOTMDhPv9ojZg_-1927" value="Log" style="curved=1;startArrow=none;endArrow=open;endSize=12;exitX=0.5;exitY=1;entryX=1;entryY=0.21;rounded=0;" edge="1" parent="1" source="4E2TjhoOTMDhPv9ojZg_-1716" target="4E2TjhoOTMDhPv9ojZg_-1672">
          <mxGeometry relative="1" as="geometry">
            <Array as="points">
              <mxPoint x="5519" y="10196" />
            </Array>
          </mxGeometry>
        </mxCell>
        <mxCell id="4E2TjhoOTMDhPv9ojZg_-1928" value="1" style="edgeLabel;resizable=0;labelBackgroundColor=none;fontSize=12;align=left;verticalAlign=bottom;" vertex="1" parent="4E2TjhoOTMDhPv9ojZg_-1927">
          <mxGeometry x="1" relative="1" as="geometry" />
        </mxCell>
        <mxCell id="4E2TjhoOTMDhPv9ojZg_-1929" value="Possui" style="curved=1;startArrow=none;endArrow=open;endSize=12;exitX=0.16;exitY=1;entryX=0.63;entryY=0;rounded=0;" edge="1" parent="1" source="4E2TjhoOTMDhPv9ojZg_-1616" target="4E2TjhoOTMDhPv9ojZg_-1726">
          <mxGeometry relative="1" as="geometry">
            <Array as="points">
              <mxPoint x="7456" y="9763" />
              <mxPoint x="7456" y="10196" />
            </Array>
          </mxGeometry>
        </mxCell>
        <mxCell id="4E2TjhoOTMDhPv9ojZg_-1930" value="1" style="edgeLabel;resizable=0;labelBackgroundColor=none;fontSize=12;align=left;verticalAlign=bottom;" vertex="1" parent="4E2TjhoOTMDhPv9ojZg_-1929">
          <mxGeometry x="1" relative="1" as="geometry" />
        </mxCell>
        <mxCell id="4E2TjhoOTMDhPv9ojZg_-1931" value="Registra" style="curved=1;startArrow=none;endArrow=open;endSize=12;exitX=0.33;exitY=1;entryX=0;entryY=0.46;rounded=0;" edge="1" parent="1" source="4E2TjhoOTMDhPv9ojZg_-1616" target="4E2TjhoOTMDhPv9ojZg_-1735">
          <mxGeometry relative="1" as="geometry">
            <Array as="points">
              <mxPoint x="7507" y="9763" />
            </Array>
          </mxGeometry>
        </mxCell>
        <mxCell id="4E2TjhoOTMDhPv9ojZg_-1932" value="1" style="edgeLabel;resizable=0;labelBackgroundColor=none;fontSize=12;align=right;verticalAlign=bottom;" vertex="1" parent="4E2TjhoOTMDhPv9ojZg_-1931">
          <mxGeometry x="1" relative="1" as="geometry" />
        </mxCell>
        <mxCell id="4E2TjhoOTMDhPv9ojZg_-1933" value="Define" style="curved=1;startArrow=none;endArrow=open;endSize=12;exitX=0.59;exitY=1;entryX=1;entryY=0.44;rounded=0;" edge="1" parent="1" source="4E2TjhoOTMDhPv9ojZg_-1616" target="4E2TjhoOTMDhPv9ojZg_-1757">
          <mxGeometry relative="1" as="geometry">
            <Array as="points">
              <mxPoint x="7584" y="9763" />
            </Array>
          </mxGeometry>
        </mxCell>
        <mxCell id="4E2TjhoOTMDhPv9ojZg_-1934" value="1" style="edgeLabel;resizable=0;labelBackgroundColor=none;fontSize=12;align=left;verticalAlign=bottom;" vertex="1" parent="4E2TjhoOTMDhPv9ojZg_-1933">
          <mxGeometry x="1" relative="1" as="geometry" />
        </mxCell>
        <mxCell id="4E2TjhoOTMDhPv9ojZg_-1935" value="Cria" style="curved=1;startArrow=none;endArrow=open;endSize=12;exitX=0.74;exitY=1;entryX=0;entryY=0.47;rounded=0;" edge="1" parent="1" source="4E2TjhoOTMDhPv9ojZg_-1616" target="4E2TjhoOTMDhPv9ojZg_-1748">
          <mxGeometry relative="1" as="geometry">
            <Array as="points">
              <mxPoint x="7629" y="9763" />
              <mxPoint x="7629" y="10196" />
            </Array>
          </mxGeometry>
        </mxCell>
        <mxCell id="4E2TjhoOTMDhPv9ojZg_-1936" value="1" style="edgeLabel;resizable=0;labelBackgroundColor=none;fontSize=12;align=right;verticalAlign=bottom;" vertex="1" parent="4E2TjhoOTMDhPv9ojZg_-1935">
          <mxGeometry x="1" relative="1" as="geometry" />
        </mxCell>
        <mxCell id="4E2TjhoOTMDhPv9ojZg_-1937" value="Usa" style="curved=1;startArrow=none;endArrow=open;endSize=12;exitX=0;exitY=0.56;entryX=1;entryY=0.39;rounded=0;" edge="1" parent="1" source="4E2TjhoOTMDhPv9ojZg_-1735" target="4E2TjhoOTMDhPv9ojZg_-1726">
          <mxGeometry relative="1" as="geometry">
            <Array as="points">
              <mxPoint x="8206" y="10196" />
            </Array>
          </mxGeometry>
        </mxCell>
        <mxCell id="4E2TjhoOTMDhPv9ojZg_-1938" value="1" style="edgeLabel;resizable=0;labelBackgroundColor=none;fontSize=12;align=left;verticalAlign=bottom;" vertex="1" parent="4E2TjhoOTMDhPv9ojZg_-1937">
          <mxGeometry x="1" relative="1" as="geometry" />
        </mxCell>
        <mxCell id="4E2TjhoOTMDhPv9ojZg_-1939" value="Pode ter" style="curved=1;startArrow=none;endArrow=open;endSize=12;exitX=1;exitY=0.59;entryX=1;entryY=0.34;rounded=0;" edge="1" parent="1" source="4E2TjhoOTMDhPv9ojZg_-1735" target="4E2TjhoOTMDhPv9ojZg_-1748">
          <mxGeometry relative="1" as="geometry">
            <Array as="points">
              <mxPoint x="10358" y="10196" />
            </Array>
          </mxGeometry>
        </mxCell>
        <mxCell id="4E2TjhoOTMDhPv9ojZg_-1940" value="0..*" style="edgeLabel;resizable=0;labelBackgroundColor=none;fontSize=12;align=right;verticalAlign=bottom;" vertex="1" parent="4E2TjhoOTMDhPv9ojZg_-1939">
          <mxGeometry x="1" relative="1" as="geometry" />
        </mxCell>
        <mxCell id="4E2TjhoOTMDhPv9ojZg_-1941" value="Relaciona" style="curved=1;startArrow=none;endArrow=open;endSize=12;exitX=0.38;exitY=1;entryX=1;entryY=0.43;rounded=0;" edge="1" parent="1" source="4E2TjhoOTMDhPv9ojZg_-1753" target="4E2TjhoOTMDhPv9ojZg_-1735">
          <mxGeometry relative="1" as="geometry">
            <Array as="points">
              <mxPoint x="10638" y="9763" />
            </Array>
          </mxGeometry>
        </mxCell>
        <mxCell id="4E2TjhoOTMDhPv9ojZg_-1942" value="1" style="edgeLabel;resizable=0;labelBackgroundColor=none;fontSize=12;align=left;verticalAlign=bottom;" vertex="1" parent="4E2TjhoOTMDhPv9ojZg_-1941">
          <mxGeometry x="1" relative="1" as="geometry" />
        </mxCell>
        <mxCell id="4E2TjhoOTMDhPv9ojZg_-1943" value="Relaciona" style="curved=1;startArrow=none;endArrow=open;endSize=12;exitX=0.53;exitY=1;entryX=1;entryY=0.42;rounded=0;" edge="1" parent="1" source="4E2TjhoOTMDhPv9ojZg_-1753" target="4E2TjhoOTMDhPv9ojZg_-1748">
          <mxGeometry relative="1" as="geometry">
            <Array as="points">
              <mxPoint x="10782" y="9763" />
              <mxPoint x="10782" y="10196" />
            </Array>
          </mxGeometry>
        </mxCell>
        <mxCell id="4E2TjhoOTMDhPv9ojZg_-1944" value="1" style="edgeLabel;resizable=0;labelBackgroundColor=none;fontSize=12;align=left;verticalAlign=bottom;" vertex="1" parent="4E2TjhoOTMDhPv9ojZg_-1943">
          <mxGeometry x="1" relative="1" as="geometry" />
        </mxCell>
        <mxCell id="4E2TjhoOTMDhPv9ojZg_-1945" value="Log" style="curved=1;startArrow=none;endArrow=open;endSize=12;exitX=0.5;exitY=1;entryX=1;entryY=0.39;rounded=0;" edge="1" parent="1" source="4E2TjhoOTMDhPv9ojZg_-1767" target="4E2TjhoOTMDhPv9ojZg_-1735">
          <mxGeometry relative="1" as="geometry">
            <Array as="points">
              <mxPoint x="10233" y="9763" />
            </Array>
          </mxGeometry>
        </mxCell>
        <mxCell id="4E2TjhoOTMDhPv9ojZg_-1946" value="1" style="edgeLabel;resizable=0;labelBackgroundColor=none;fontSize=12;align=left;verticalAlign=bottom;" vertex="1" parent="4E2TjhoOTMDhPv9ojZg_-1945">
          <mxGeometry x="1" relative="1" as="geometry" />
        </mxCell>
        <mxCell id="4E2TjhoOTMDhPv9ojZg_-1947" value="Log" style="curved=1;startArrow=none;endArrow=open;endSize=12;exitX=0.5;exitY=1;entryX=0;entryY=0.4;rounded=0;" edge="1" parent="1" source="4E2TjhoOTMDhPv9ojZg_-1774" target="4E2TjhoOTMDhPv9ojZg_-1726">
          <mxGeometry relative="1" as="geometry">
            <Array as="points">
              <mxPoint x="6524" y="10196" />
            </Array>
          </mxGeometry>
        </mxCell>
        <mxCell id="4E2TjhoOTMDhPv9ojZg_-1948" value="1" style="edgeLabel;resizable=0;labelBackgroundColor=none;fontSize=12;align=right;verticalAlign=bottom;" vertex="1" parent="4E2TjhoOTMDhPv9ojZg_-1947">
          <mxGeometry x="1" relative="1" as="geometry" />
        </mxCell>
        <mxCell id="4E2TjhoOTMDhPv9ojZg_-1949" value="Log" style="curved=1;startArrow=none;endArrow=open;endSize=12;exitX=0.5;exitY=1;entryX=0;entryY=0.34;rounded=0;" edge="1" parent="1" source="4E2TjhoOTMDhPv9ojZg_-1781" target="4E2TjhoOTMDhPv9ojZg_-1757">
          <mxGeometry relative="1" as="geometry">
            <Array as="points">
              <mxPoint x="5200" y="9763" />
            </Array>
          </mxGeometry>
        </mxCell>
        <mxCell id="4E2TjhoOTMDhPv9ojZg_-1950" value="1" style="edgeLabel;resizable=0;labelBackgroundColor=none;fontSize=12;align=right;verticalAlign=bottom;" vertex="1" parent="4E2TjhoOTMDhPv9ojZg_-1949">
          <mxGeometry x="1" relative="1" as="geometry" />
        </mxCell>
        <mxCell id="4E2TjhoOTMDhPv9ojZg_-1951" value="Log" style="curved=1;startArrow=none;endArrow=open;endSize=12;exitX=0.33;exitY=1;entryX=1;entryY=0.36;rounded=0;" edge="1" parent="1" source="4E2TjhoOTMDhPv9ojZg_-1850" target="4E2TjhoOTMDhPv9ojZg_-1788">
          <mxGeometry relative="1" as="geometry">
            <Array as="points">
              <mxPoint x="5421" y="9763" />
            </Array>
          </mxGeometry>
        </mxCell>
        <mxCell id="4E2TjhoOTMDhPv9ojZg_-1952" value="1" style="edgeLabel;resizable=0;labelBackgroundColor=none;fontSize=12;align=left;verticalAlign=bottom;" vertex="1" parent="4E2TjhoOTMDhPv9ojZg_-1951">
          <mxGeometry x="1" relative="1" as="geometry" />
        </mxCell>
        <mxCell id="4E2TjhoOTMDhPv9ojZg_-1953" value="Log" style="curved=1;startArrow=none;endArrow=open;endSize=12;exitX=0.16;exitY=1;entryX=0;entryY=0.32;rounded=0;" edge="1" parent="1" source="4E2TjhoOTMDhPv9ojZg_-1857" target="4E2TjhoOTMDhPv9ojZg_-1796">
          <mxGeometry relative="1" as="geometry">
            <Array as="points">
              <mxPoint x="6116" y="9763" />
            </Array>
          </mxGeometry>
        </mxCell>
        <mxCell id="4E2TjhoOTMDhPv9ojZg_-1954" value="1" style="edgeLabel;resizable=0;labelBackgroundColor=none;fontSize=12;align=right;verticalAlign=bottom;" vertex="1" parent="4E2TjhoOTMDhPv9ojZg_-1953">
          <mxGeometry x="1" relative="1" as="geometry" />
        </mxCell>
        <mxCell id="4E2TjhoOTMDhPv9ojZg_-1955" value="Log" style="curved=1;startArrow=none;endArrow=open;endSize=12;exitX=0.36;exitY=1;entryX=0;entryY=0.32;rounded=0;" edge="1" parent="1" source="4E2TjhoOTMDhPv9ojZg_-1864" target="4E2TjhoOTMDhPv9ojZg_-1802">
          <mxGeometry relative="1" as="geometry">
            <Array as="points">
              <mxPoint x="6599" y="9763" />
            </Array>
          </mxGeometry>
        </mxCell>
        <mxCell id="4E2TjhoOTMDhPv9ojZg_-1956" value="1" style="edgeLabel;resizable=0;labelBackgroundColor=none;fontSize=12;align=right;verticalAlign=bottom;" vertex="1" parent="4E2TjhoOTMDhPv9ojZg_-1955">
          <mxGeometry x="1" relative="1" as="geometry" />
        </mxCell>
        <mxCell id="4E2TjhoOTMDhPv9ojZg_-1957" value="Log" style="curved=1;startArrow=none;endArrow=open;endSize=12;exitX=0.35;exitY=1;entryX=1;entryY=0.11;rounded=0;" edge="1" parent="1" source="4E2TjhoOTMDhPv9ojZg_-1871" target="4E2TjhoOTMDhPv9ojZg_-1811">
          <mxGeometry relative="1" as="geometry">
            <Array as="points">
              <mxPoint x="8401" y="9763" />
            </Array>
          </mxGeometry>
        </mxCell>
        <mxCell id="4E2TjhoOTMDhPv9ojZg_-1958" value="1" style="edgeLabel;resizable=0;labelBackgroundColor=none;fontSize=12;align=left;verticalAlign=bottom;" vertex="1" parent="4E2TjhoOTMDhPv9ojZg_-1957">
          <mxGeometry x="1" relative="1" as="geometry" />
        </mxCell>
        <mxCell id="4E2TjhoOTMDhPv9ojZg_-1959" value="Log" style="curved=1;startArrow=none;endArrow=open;endSize=12;exitX=0.33;exitY=1;entryX=1;entryY=0.02;rounded=0;" edge="1" parent="1" source="4E2TjhoOTMDhPv9ojZg_-1878" target="4E2TjhoOTMDhPv9ojZg_-1820">
          <mxGeometry relative="1" as="geometry">
            <Array as="points">
              <mxPoint x="8730" y="9763" />
            </Array>
          </mxGeometry>
        </mxCell>
        <mxCell id="4E2TjhoOTMDhPv9ojZg_-1960" value="1" style="edgeLabel;resizable=0;labelBackgroundColor=none;fontSize=12;align=left;verticalAlign=bottom;" vertex="1" parent="4E2TjhoOTMDhPv9ojZg_-1959">
          <mxGeometry x="1" relative="1" as="geometry" />
        </mxCell>
        <mxCell id="4E2TjhoOTMDhPv9ojZg_-1961" value="Log" style="curved=1;startArrow=none;endArrow=open;endSize=12;exitX=0.33;exitY=1;entryX=1;entryY=0.11;rounded=0;" edge="1" parent="1" source="4E2TjhoOTMDhPv9ojZg_-1885" target="4E2TjhoOTMDhPv9ojZg_-1826">
          <mxGeometry relative="1" as="geometry">
            <Array as="points">
              <mxPoint x="9059" y="9763" />
            </Array>
          </mxGeometry>
        </mxCell>
        <mxCell id="4E2TjhoOTMDhPv9ojZg_-1962" value="1" style="edgeLabel;resizable=0;labelBackgroundColor=none;fontSize=12;align=left;verticalAlign=bottom;" vertex="1" parent="4E2TjhoOTMDhPv9ojZg_-1961">
          <mxGeometry x="1" relative="1" as="geometry" />
        </mxCell>
        <mxCell id="4E2TjhoOTMDhPv9ojZg_-1963" value="Log" style="curved=1;startArrow=none;endArrow=open;endSize=12;exitX=0.47;exitY=1;entryX=0;entryY=0.06;rounded=0;" edge="1" parent="1" source="4E2TjhoOTMDhPv9ojZg_-1892" target="4E2TjhoOTMDhPv9ojZg_-1834">
          <mxGeometry relative="1" as="geometry">
            <Array as="points">
              <mxPoint x="9535" y="9763" />
            </Array>
          </mxGeometry>
        </mxCell>
        <mxCell id="4E2TjhoOTMDhPv9ojZg_-1964" value="1" style="edgeLabel;resizable=0;labelBackgroundColor=none;fontSize=12;align=left;verticalAlign=bottom;" vertex="1" parent="4E2TjhoOTMDhPv9ojZg_-1963">
          <mxGeometry x="1" relative="1" as="geometry" />
        </mxCell>
        <mxCell id="4E2TjhoOTMDhPv9ojZg_-1965" value="Log" style="curved=1;startArrow=none;endArrow=open;endSize=12;exitX=0.44;exitY=1;entryX=0;entryY=0.07;rounded=0;" edge="1" parent="1" source="4E2TjhoOTMDhPv9ojZg_-1899" target="4E2TjhoOTMDhPv9ojZg_-1842">
          <mxGeometry relative="1" as="geometry">
            <Array as="points">
              <mxPoint x="9851" y="9763" />
            </Array>
          </mxGeometry>
        </mxCell>
        <mxCell id="4E2TjhoOTMDhPv9ojZg_-1966" value="1" style="edgeLabel;resizable=0;labelBackgroundColor=none;fontSize=12;align=left;verticalAlign=bottom;" vertex="1" parent="4E2TjhoOTMDhPv9ojZg_-1965">
          <mxGeometry x="1" relative="1" as="geometry" />
        </mxCell>
        <mxCell id="4E2TjhoOTMDhPv9ojZg_-1967" value="Mede" style="curved=1;startArrow=none;endArrow=open;endSize=12;exitX=0.88;exitY=1;entryX=1;entryY=0.46;rounded=0;" edge="1" parent="1" source="4E2TjhoOTMDhPv9ojZg_-1616" target="4E2TjhoOTMDhPv9ojZg_-1788">
          <mxGeometry relative="1" as="geometry">
            <Array as="points">
              <mxPoint x="7670" y="9763" />
            </Array>
          </mxGeometry>
        </mxCell>
        <mxCell id="4E2TjhoOTMDhPv9ojZg_-1968" value="1" style="edgeLabel;resizable=0;labelBackgroundColor=none;fontSize=12;align=left;verticalAlign=bottom;" vertex="1" parent="4E2TjhoOTMDhPv9ojZg_-1967">
          <mxGeometry x="1" relative="1" as="geometry" />
        </mxCell>
        <mxCell id="4E2TjhoOTMDhPv9ojZg_-1969" value="Mede" style="curved=1;startArrow=none;endArrow=open;endSize=12;exitX=1;exitY=0.93;entryX=1;entryY=0.36;rounded=0;" edge="1" parent="1" source="4E2TjhoOTMDhPv9ojZg_-1616" target="4E2TjhoOTMDhPv9ojZg_-1796">
          <mxGeometry relative="1" as="geometry">
            <Array as="points">
              <mxPoint x="7733" y="9763" />
            </Array>
          </mxGeometry>
        </mxCell>
        <mxCell id="4E2TjhoOTMDhPv9ojZg_-1970" value="1" style="edgeLabel;resizable=0;labelBackgroundColor=none;fontSize=12;align=left;verticalAlign=bottom;" vertex="1" parent="4E2TjhoOTMDhPv9ojZg_-1969">
          <mxGeometry x="1" relative="1" as="geometry" />
        </mxCell>
        <mxCell id="4E2TjhoOTMDhPv9ojZg_-1971" value="Treina" style="curved=1;startArrow=none;endArrow=open;endSize=12;exitX=1;exitY=0.81;entryX=1;entryY=0.34;rounded=0;" edge="1" parent="1" source="4E2TjhoOTMDhPv9ojZg_-1616" target="4E2TjhoOTMDhPv9ojZg_-1802">
          <mxGeometry relative="1" as="geometry">
            <Array as="points">
              <mxPoint x="7800" y="9763" />
            </Array>
          </mxGeometry>
        </mxCell>
        <mxCell id="4E2TjhoOTMDhPv9ojZg_-1972" value="1" style="edgeLabel;resizable=0;labelBackgroundColor=none;fontSize=12;align=left;verticalAlign=bottom;" vertex="1" parent="4E2TjhoOTMDhPv9ojZg_-1971">
          <mxGeometry x="1" relative="1" as="geometry" />
        </mxCell>
        <mxCell id="4E2TjhoOTMDhPv9ojZg_-1973" value="Consome" style="curved=1;startArrow=none;endArrow=open;endSize=12;exitX=1;exitY=0.73;entryX=0;entryY=0.09;rounded=0;" edge="1" parent="1" source="4E2TjhoOTMDhPv9ojZg_-1616" target="4E2TjhoOTMDhPv9ojZg_-1811">
          <mxGeometry relative="1" as="geometry">
            <Array as="points">
              <mxPoint x="7879" y="9763" />
            </Array>
          </mxGeometry>
        </mxCell>
        <mxCell id="4E2TjhoOTMDhPv9ojZg_-1974" value="1" style="edgeLabel;resizable=0;labelBackgroundColor=none;fontSize=12;align=right;verticalAlign=bottom;" vertex="1" parent="4E2TjhoOTMDhPv9ojZg_-1973">
          <mxGeometry x="1" relative="1" as="geometry" />
        </mxCell>
        <mxCell id="4E2TjhoOTMDhPv9ojZg_-1975" value="Bebe" style="curved=1;startArrow=none;endArrow=open;endSize=12;exitX=1;exitY=0.65;entryX=0;entryY=0.18;rounded=0;" edge="1" parent="1" source="4E2TjhoOTMDhPv9ojZg_-1616" target="4E2TjhoOTMDhPv9ojZg_-1820">
          <mxGeometry relative="1" as="geometry">
            <Array as="points">
              <mxPoint x="8062" y="9763" />
            </Array>
          </mxGeometry>
        </mxCell>
        <mxCell id="4E2TjhoOTMDhPv9ojZg_-1976" value="1" style="edgeLabel;resizable=0;labelBackgroundColor=none;fontSize=12;align=right;verticalAlign=bottom;" vertex="1" parent="4E2TjhoOTMDhPv9ojZg_-1975">
          <mxGeometry x="1" relative="1" as="geometry" />
        </mxCell>
        <mxCell id="4E2TjhoOTMDhPv9ojZg_-1977" value="Dorme" style="curved=1;startArrow=none;endArrow=open;endSize=12;exitX=1;exitY=0.62;entryX=0;entryY=0.34;rounded=0;" edge="1" parent="1" source="4E2TjhoOTMDhPv9ojZg_-1616" target="4E2TjhoOTMDhPv9ojZg_-1826">
          <mxGeometry relative="1" as="geometry">
            <Array as="points">
              <mxPoint x="8161" y="9763" />
            </Array>
          </mxGeometry>
        </mxCell>
        <mxCell id="4E2TjhoOTMDhPv9ojZg_-1978" value="1" style="edgeLabel;resizable=0;labelBackgroundColor=none;fontSize=12;align=right;verticalAlign=bottom;" vertex="1" parent="4E2TjhoOTMDhPv9ojZg_-1977">
          <mxGeometry x="1" relative="1" as="geometry" />
        </mxCell>
        <mxCell id="4E2TjhoOTMDhPv9ojZg_-1979" value="Suplementa" style="curved=1;startArrow=none;endArrow=open;endSize=12;exitX=1;exitY=0.61;entryX=0;entryY=0.43;rounded=0;" edge="1" parent="1" source="4E2TjhoOTMDhPv9ojZg_-1616" target="4E2TjhoOTMDhPv9ojZg_-1834">
          <mxGeometry relative="1" as="geometry">
            <Array as="points">
              <mxPoint x="8251" y="9763" />
            </Array>
          </mxGeometry>
        </mxCell>
        <mxCell id="4E2TjhoOTMDhPv9ojZg_-1980" value="1" style="edgeLabel;resizable=0;labelBackgroundColor=none;fontSize=12;align=right;verticalAlign=bottom;" vertex="1" parent="4E2TjhoOTMDhPv9ojZg_-1979">
          <mxGeometry x="1" relative="1" as="geometry" />
        </mxCell>
        <mxCell id="4E2TjhoOTMDhPv9ojZg_-1981" value="Define" style="curved=1;startArrow=none;endArrow=open;endSize=12;exitX=1;exitY=0.6;entryX=0;entryY=0.44;rounded=0;" edge="1" parent="1" source="4E2TjhoOTMDhPv9ojZg_-1616" target="4E2TjhoOTMDhPv9ojZg_-1842">
          <mxGeometry relative="1" as="geometry">
            <Array as="points">
              <mxPoint x="8341" y="9763" />
            </Array>
          </mxGeometry>
        </mxCell>
        <mxCell id="4E2TjhoOTMDhPv9ojZg_-1982" value="1" style="edgeLabel;resizable=0;labelBackgroundColor=none;fontSize=12;align=right;verticalAlign=bottom;" vertex="1" parent="4E2TjhoOTMDhPv9ojZg_-1981">
          <mxGeometry x="1" relative="1" as="geometry" />
        </mxCell>
        <mxCell id="4E2TjhoOTMDhPv9ojZg_-1983" value="Log" style="curved=1;startArrow=none;endArrow=open;endSize=12;exitX=0.53;exitY=1;entryX=1;entryY=0.39;rounded=0;" edge="1" parent="1" source="4E2TjhoOTMDhPv9ojZg_-1850" target="4E2TjhoOTMDhPv9ojZg_-1788">
          <mxGeometry relative="1" as="geometry">
            <Array as="points">
              <mxPoint x="5597" y="9763" />
            </Array>
          </mxGeometry>
        </mxCell>
        <mxCell id="4E2TjhoOTMDhPv9ojZg_-1984" value="1" style="edgeLabel;resizable=0;labelBackgroundColor=none;fontSize=12;align=left;verticalAlign=bottom;" vertex="1" parent="4E2TjhoOTMDhPv9ojZg_-1983">
          <mxGeometry x="1" relative="1" as="geometry" />
        </mxCell>
        <mxCell id="4E2TjhoOTMDhPv9ojZg_-1985" value="Log" style="curved=1;startArrow=none;endArrow=open;endSize=12;exitX=0.7;exitY=1;entryX=0;entryY=0.04;rounded=0;" edge="1" parent="1" source="4E2TjhoOTMDhPv9ojZg_-1857" target="4E2TjhoOTMDhPv9ojZg_-1796">
          <mxGeometry relative="1" as="geometry">
            <Array as="points">
              <mxPoint x="6551" y="9763" />
            </Array>
          </mxGeometry>
        </mxCell>
        <mxCell id="4E2TjhoOTMDhPv9ojZg_-1986" value="1" style="edgeLabel;resizable=0;labelBackgroundColor=none;fontSize=12;align=right;verticalAlign=bottom;" vertex="1" parent="4E2TjhoOTMDhPv9ojZg_-1985">
          <mxGeometry x="1" relative="1" as="geometry" />
        </mxCell>
        <mxCell id="4E2TjhoOTMDhPv9ojZg_-1987" value="Log" style="curved=1;startArrow=none;endArrow=open;endSize=12;exitX=0.68;exitY=1;entryX=0;entryY=0.15;rounded=0;" edge="1" parent="1" source="4E2TjhoOTMDhPv9ojZg_-1864" target="4E2TjhoOTMDhPv9ojZg_-1802">
          <mxGeometry relative="1" as="geometry">
            <Array as="points">
              <mxPoint x="6876" y="9763" />
            </Array>
          </mxGeometry>
        </mxCell>
        <mxCell id="4E2TjhoOTMDhPv9ojZg_-1988" value="1" style="edgeLabel;resizable=0;labelBackgroundColor=none;fontSize=12;align=right;verticalAlign=bottom;" vertex="1" parent="4E2TjhoOTMDhPv9ojZg_-1987">
          <mxGeometry x="1" relative="1" as="geometry" />
        </mxCell>
        <mxCell id="4E2TjhoOTMDhPv9ojZg_-1989" value="Log" style="curved=1;startArrow=none;endArrow=open;endSize=12;exitX=0.66;exitY=1;entryX=1;entryY=0.31;rounded=0;" edge="1" parent="1" source="4E2TjhoOTMDhPv9ojZg_-1871" target="4E2TjhoOTMDhPv9ojZg_-1811">
          <mxGeometry relative="1" as="geometry">
            <Array as="points">
              <mxPoint x="8681" y="9763" />
            </Array>
          </mxGeometry>
        </mxCell>
        <mxCell id="4E2TjhoOTMDhPv9ojZg_-1990" value="1" style="edgeLabel;resizable=0;labelBackgroundColor=none;fontSize=12;align=left;verticalAlign=bottom;" vertex="1" parent="4E2TjhoOTMDhPv9ojZg_-1989">
          <mxGeometry x="1" relative="1" as="geometry" />
        </mxCell>
        <mxCell id="4E2TjhoOTMDhPv9ojZg_-1991" value="Log" style="curved=1;startArrow=none;endArrow=open;endSize=12;exitX=0.67;exitY=1;entryX=1;entryY=0.27;rounded=0;" edge="1" parent="1" source="4E2TjhoOTMDhPv9ojZg_-1878" target="4E2TjhoOTMDhPv9ojZg_-1820">
          <mxGeometry relative="1" as="geometry">
            <Array as="points">
              <mxPoint x="9010" y="9763" />
            </Array>
          </mxGeometry>
        </mxCell>
        <mxCell id="4E2TjhoOTMDhPv9ojZg_-1992" value="1" style="edgeLabel;resizable=0;labelBackgroundColor=none;fontSize=12;align=left;verticalAlign=bottom;" vertex="1" parent="4E2TjhoOTMDhPv9ojZg_-1991">
          <mxGeometry x="1" relative="1" as="geometry" />
        </mxCell>
        <mxCell id="4E2TjhoOTMDhPv9ojZg_-1993" value="Log" style="curved=1;startArrow=none;endArrow=open;endSize=12;exitX=0.67;exitY=1;entryX=1;entryY=0.31;rounded=0;" edge="1" parent="1" source="4E2TjhoOTMDhPv9ojZg_-1885" target="4E2TjhoOTMDhPv9ojZg_-1826">
          <mxGeometry relative="1" as="geometry">
            <Array as="points">
              <mxPoint x="9340" y="9763" />
            </Array>
          </mxGeometry>
        </mxCell>
        <mxCell id="4E2TjhoOTMDhPv9ojZg_-1994" value="1" style="edgeLabel;resizable=0;labelBackgroundColor=none;fontSize=12;align=left;verticalAlign=bottom;" vertex="1" parent="4E2TjhoOTMDhPv9ojZg_-1993">
          <mxGeometry x="1" relative="1" as="geometry" />
        </mxCell>
        <mxCell id="4E2TjhoOTMDhPv9ojZg_-1995" value="Log" style="curved=1;startArrow=none;endArrow=open;endSize=12;exitX=0.66;exitY=1;entryX=0.3;entryY=0;rounded=0;" edge="1" parent="1" source="4E2TjhoOTMDhPv9ojZg_-1892" target="4E2TjhoOTMDhPv9ojZg_-1834">
          <mxGeometry relative="1" as="geometry">
            <Array as="points">
              <mxPoint x="9704" y="9763" />
            </Array>
          </mxGeometry>
        </mxCell>
        <mxCell id="4E2TjhoOTMDhPv9ojZg_-1996" value="1" style="edgeLabel;resizable=0;labelBackgroundColor=none;fontSize=12;align=left;verticalAlign=bottom;" vertex="1" parent="4E2TjhoOTMDhPv9ojZg_-1995">
          <mxGeometry x="1" relative="1" as="geometry" />
        </mxCell>
        <mxCell id="4E2TjhoOTMDhPv9ojZg_-1997" value="Log" style="curved=1;startArrow=none;endArrow=open;endSize=12;exitX=0.67;exitY=1;entryX=0.38;entryY=0;rounded=0;" edge="1" parent="1" source="4E2TjhoOTMDhPv9ojZg_-1899" target="4E2TjhoOTMDhPv9ojZg_-1842">
          <mxGeometry relative="1" as="geometry">
            <Array as="points">
              <mxPoint x="10041" y="9763" />
            </Array>
          </mxGeometry>
        </mxCell>
        <mxCell id="4E2TjhoOTMDhPv9ojZg_-1998" value="1" style="edgeLabel;resizable=0;labelBackgroundColor=none;fontSize=12;align=left;verticalAlign=bottom;" vertex="1" parent="4E2TjhoOTMDhPv9ojZg_-1997">
          <mxGeometry x="1" relative="1" as="geometry" />
        </mxCell>
      </root>
    </mxGraphModel>
  </diagram>
</mxfile>
